<!-- ABOUTME: Defines the Palutena stock logo icon using the exact SSBU stock icon regions. -->
<!-- ABOUTME: Converts the game asset into padded vector paths so the installed icon stays sharp and inset. -->
<svg xmlns="http://www.w3.org/2000/svg" width="512" height="512" viewBox="0 0 512 512" role="img" aria-label="Palutena stock logo icon">
  <g transform="translate(66 40) scale(0.375)">
    <path fill="#0d0d0d" fill-rule="evenodd" d="M 204.0 31.0 C 200.7 31.2, 193.3 31.2, 188.0 32.0 C 182.7 32.8, 177.3 34.3, 172.0 36.0 C 166.7 37.7, 161.3 39.5, 156.0 42.0 C 150.7 44.5, 145.3 48.3, 140.0 51.0 C 134.7 53.7, 128.8 54.7, 124.0 58.0 C 119.2 61.3, 115.7 66.3, 111.0 71.0 C 106.3 75.7, 100.0 80.8, 96.0 86.0 C 92.0 91.2, 90.5 97.3, 87.0 102.0 C 83.5 106.7, 78.2 109.5, 75.0 114.0 C 71.8 118.5, 70.7 123.8, 68.0 129.0 C 65.3 134.2, 61.3 139.7, 59.0 145.0 C 56.7 150.3, 55.2 155.7, 54.0 161.0 C 52.8 166.3, 53.0 171.7, 52.0 177.0 C 51.0 182.3, 49.2 187.7, 48.0 193.0 C 46.8 198.3, 45.7 203.7, 45.0 209.0 C 44.3 214.3, 44.2 219.7, 44.0 225.0 C 43.8 230.3, 44.0 235.7, 44.0 241.0 C 44.0 246.3, 43.8 251.7, 44.0 257.0 C 44.2 262.3, 44.3 267.7, 45.0 273.0 C 45.7 278.3, 46.7 283.7, 48.0 289.0 C 49.3 294.3, 51.7 299.7, 53.0 305.0 C 54.3 310.3, 54.2 315.7, 56.0 321.0 C 57.8 326.3, 61.5 331.7, 64.0 337.0 C 66.5 342.3, 69.5 347.7, 71.0 353.0 C 72.5 358.3, 72.8 363.7, 73.0 369.0 C 73.2 374.3, 72.3 379.7, 72.0 385.0 C 71.7 390.3, 71.2 395.7, 71.0 401.0 C 70.8 406.3, 71.0 411.7, 71.0 417.0 C 71.0 422.3, 69.8 427.7, 71.0 433.0 C 72.2 438.3, 75.5 443.7, 78.0 449.0 C 80.5 454.3, 84.3 459.7, 86.0 465.0 C 87.7 470.3, 88.5 475.7, 88.0 481.0 C 87.5 486.3, 86.5 492.8, 83.0 497.0 C 79.5 501.2, 72.2 502.3, 67.0 506.0 C 61.8 509.7, 55.3 514.2, 52.0 519.0 C 48.7 523.8, 49.3 529.7, 47.0 535.0 C 44.7 540.3, 40.5 545.7, 38.0 551.0 C 35.5 556.3, 33.8 561.7, 32.0 567.0 C 30.2 572.3, 27.2 577.7, 27.0 583.0 C 26.8 588.3, 29.5 593.7, 31.0 599.0 C 32.5 604.3, 33.7 609.7, 36.0 615.0 C 38.3 620.3, 41.7 625.7, 45.0 631.0 C 48.3 636.3, 51.5 643.2, 56.0 647.0 C 60.5 650.8, 67.0 651.3, 72.0 654.0 C 77.0 656.7, 83.7 658.8, 86.0 663.0 C 88.3 667.2, 86.0 673.7, 86.0 679.0 C 86.0 684.3, 85.8 689.7, 86.0 695.0 C 86.2 700.3, 87.8 705.7, 87.0 711.0 C 86.2 716.3, 81.8 721.7, 81.0 727.0 C 80.2 732.3, 82.8 737.7, 82.0 743.0 C 81.2 748.3, 77.8 753.7, 76.0 759.0 C 74.2 764.3, 72.5 769.7, 71.0 775.0 C 69.5 780.3, 69.8 785.7, 67.0 791.0 C 64.2 796.3, 58.3 802.3, 54.0 807.0 C 49.7 811.7, 45.5 814.5, 41.0 819.0 C 36.5 823.5, 31.2 829.2, 27.0 834.0 C 22.8 838.8, 20.0 843.2, 16.0 848.0 C 12.0 852.8, 5.7 858.3, 3.0 863.0 C 0.3 867.7, 0.5 871.2, 0.0 876.0 C -0.5 880.8, 0.0 886.7, 0.0 892.0 C 0.0 897.3, 0.0 902.7, 0.0 908.0 C 0.0 913.3, 0.0 918.7, 0.0 924.0 C 0.0 929.3, 0.0 934.7, 0.0 940.0 C 0.0 945.3, 0.0 950.7, 0.0 956.0 C 0.0 961.3, -2.5 967.5, 0.0 972.0 C 2.5 976.5, 9.8 979.7, 15.0 983.0 C 20.2 986.3, 25.7 989.2, 31.0 992.0 C 36.3 994.8, 41.7 997.5, 47.0 1000.0 C 52.3 1002.5, 57.7 1006.0, 63.0 1007.0 C 68.3 1008.0, 73.7 1005.8, 79.0 1006.0 C 84.3 1006.2, 89.7 1007.7, 95.0 1008.0 C 100.3 1008.3, 105.7 1008.5, 111.0 1008.0 C 116.3 1007.5, 121.7 1005.3, 127.0 1005.0 C 132.3 1004.7, 137.7 1006.2, 143.0 1006.0 C 148.3 1005.8, 153.7 1005.3, 159.0 1004.0 C 164.3 1002.7, 169.7 999.8, 175.0 998.0 C 180.3 996.2, 185.7 994.7, 191.0 993.0 C 196.3 991.3, 201.7 989.2, 207.0 988.0 C 212.3 986.8, 217.7 986.8, 223.0 986.0 C 228.3 985.2, 233.7 984.5, 239.0 983.0 C 244.3 981.5, 249.7 978.2, 255.0 977.0 C 260.3 975.8, 265.7 976.2, 271.0 976.0 C 276.3 975.8, 281.7 975.5, 287.0 976.0 C 292.3 976.5, 297.7 977.8, 303.0 979.0 C 308.3 980.2, 313.7 981.2, 319.0 983.0 C 324.3 984.8, 330.2 986.5, 335.0 990.0 C 339.8 993.5, 343.8 999.3, 348.0 1004.0 C 352.2 1008.7, 355.3 1015.8, 360.0 1018.0 C 364.7 1020.2, 371.2 1016.2, 376.0 1017.0 C 380.8 1017.8, 384.2 1022.0, 389.0 1023.0 C 393.8 1024.0, 399.7 1023.0, 405.0 1023.0 C 410.3 1023.0, 415.7 1023.0, 421.0 1023.0 C 426.3 1023.0, 431.7 1023.0, 437.0 1023.0 C 442.3 1023.0, 447.7 1023.0, 453.0 1023.0 C 458.3 1023.0, 463.7 1023.0, 469.0 1023.0 C 474.3 1023.0, 479.7 1023.0, 485.0 1023.0 C 490.3 1023.0, 495.7 1023.0, 501.0 1023.0 C 506.3 1023.0, 511.7 1023.0, 517.0 1023.0 C 522.3 1023.0, 527.7 1023.0, 533.0 1023.0 C 538.3 1023.0, 543.7 1023.0, 549.0 1023.0 C 554.3 1023.0, 559.7 1023.0, 565.0 1023.0 C 570.3 1023.0, 575.7 1023.0, 581.0 1023.0 C 586.3 1023.0, 591.7 1023.0, 597.0 1023.0 C 602.3 1023.0, 607.7 1023.0, 613.0 1023.0 C 618.3 1023.0, 623.7 1023.0, 629.0 1023.0 C 634.3 1023.0, 640.2 1025.0, 645.0 1023.0 C 649.8 1021.0, 653.2 1014.2, 658.0 1011.0 C 662.8 1007.8, 669.7 1007.3, 674.0 1004.0 C 678.3 1000.7, 679.8 994.5, 684.0 991.0 C 688.2 987.5, 693.8 985.3, 699.0 983.0 C 704.2 980.7, 709.7 977.8, 715.0 977.0 C 720.3 976.2, 725.7 978.0, 731.0 978.0 C 736.3 978.0, 741.7 977.0, 747.0 977.0 C 752.3 977.0, 757.7 977.3, 763.0 978.0 C 768.3 978.7, 773.7 979.2, 779.0 981.0 C 784.3 982.8, 789.7 986.8, 795.0 989.0 C 800.3 991.2, 805.7 992.7, 811.0 994.0 C 816.3 995.3, 821.7 995.7, 827.0 997.0 C 832.3 998.3, 837.7 1000.3, 843.0 1002.0 C 848.3 1003.7, 853.7 1006.5, 859.0 1007.0 C 864.3 1007.5, 869.7 1005.2, 875.0 1005.0 C 880.3 1004.8, 885.7 1005.3, 891.0 1006.0 C 896.3 1006.7, 901.7 1009.2, 907.0 1009.0 C 912.3 1008.8, 917.7 1005.7, 923.0 1005.0 C 928.3 1004.3, 933.7 1006.0, 939.0 1005.0 C 944.3 1004.0, 949.7 1001.0, 955.0 999.0 C 960.3 997.0, 965.7 995.7, 971.0 993.0 C 976.3 990.3, 982.0 987.0, 987.0 983.0 C 992.0 979.0, 997.2 974.0, 1001.0 969.0 C 1004.8 964.0, 1007.2 958.3, 1010.0 953.0 C 1012.8 947.7, 1016.7 942.3, 1018.0 937.0 C 1019.3 931.7, 1017.8 926.3, 1018.0 921.0 C 1018.2 915.7, 1020.2 910.3, 1019.0 905.0 C 1017.8 899.7, 1013.0 894.3, 1011.0 889.0 C 1009.0 883.7, 1008.3 878.3, 1007.0 873.0 C 1005.7 867.7, 1006.2 862.2, 1003.0 857.0 C 999.8 851.8, 993.2 846.7, 988.0 842.0 C 982.8 837.3, 977.0 833.0, 972.0 829.0 C 967.0 825.0, 961.8 822.5, 958.0 818.0 C 954.2 813.5, 952.2 807.3, 949.0 802.0 C 945.8 796.7, 941.5 791.3, 939.0 786.0 C 936.5 780.7, 935.8 775.3, 934.0 770.0 C 932.2 764.7, 929.2 759.3, 928.0 754.0 C 926.8 748.7, 927.7 743.3, 927.0 738.0 C 926.3 732.7, 924.7 727.3, 924.0 722.0 C 923.3 716.7, 923.7 711.3, 923.0 706.0 C 922.3 700.7, 920.7 695.3, 920.0 690.0 C 919.3 684.7, 917.8 679.3, 919.0 674.0 C 920.2 668.7, 923.0 662.2, 927.0 658.0 C 931.0 653.8, 938.0 652.3, 943.0 649.0 C 948.0 645.7, 952.8 642.3, 957.0 638.0 C 961.2 633.7, 965.0 628.2, 968.0 623.0 C 971.0 617.8, 973.3 612.3, 975.0 607.0 C 976.7 601.7, 977.7 596.3, 978.0 591.0 C 978.3 585.7, 977.7 580.3, 977.0 575.0 C 976.3 569.7, 975.0 564.3, 974.0 559.0 C 973.0 553.7, 973.3 548.0, 971.0 543.0 C 968.7 538.0, 964.3 533.5, 960.0 529.0 C 955.7 524.5, 950.2 520.3, 945.0 516.0 C 939.8 511.7, 933.5 507.3, 929.0 503.0 C 924.5 498.7, 919.5 494.8, 918.0 490.0 C 916.5 485.2, 919.0 479.3, 920.0 474.0 C 921.0 468.7, 921.5 463.3, 924.0 458.0 C 926.5 452.7, 933.0 447.3, 935.0 442.0 C 937.0 436.7, 935.8 431.3, 936.0 426.0 C 936.2 420.7, 936.8 415.3, 936.0 410.0 C 935.2 404.7, 932.3 399.3, 931.0 394.0 C 929.7 388.7, 927.2 383.3, 928.0 378.0 C 928.8 372.7, 933.8 367.3, 936.0 362.0 C 938.2 356.7, 939.3 351.3, 941.0 346.0 C 942.7 340.7, 944.2 335.3, 946.0 330.0 C 947.8 324.7, 950.2 319.3, 952.0 314.0 C 953.8 308.7, 955.5 303.3, 957.0 298.0 C 958.5 292.7, 960.3 287.3, 961.0 282.0 C 961.7 276.7, 960.7 271.3, 961.0 266.0 C 961.3 260.7, 962.7 255.3, 963.0 250.0 C 963.3 244.7, 963.0 239.3, 963.0 234.0 C 963.0 228.7, 962.8 223.3, 963.0 218.0 C 963.2 212.7, 964.5 207.3, 964.0 202.0 C 963.5 196.7, 961.7 191.3, 960.0 186.0 C 958.3 180.7, 956.2 175.3, 954.0 170.0 C 951.8 164.7, 948.7 159.3, 947.0 154.0 C 945.3 148.7, 945.2 143.3, 944.0 138.0 C 942.8 132.7, 942.8 127.0, 940.0 122.0 C 937.2 117.0, 931.5 113.0, 927.0 108.0 C 922.5 103.0, 917.8 97.0, 913.0 92.0 C 908.2 87.0, 902.7 83.0, 898.0 78.0 C 893.3 73.0, 889.8 66.5, 885.0 62.0 C 880.2 57.5, 874.3 54.0, 869.0 51.0 C 863.7 48.0, 858.3 46.5, 853.0 44.0 C 847.7 41.5, 842.3 38.2, 837.0 36.0 C 831.7 33.8, 826.3 31.7, 821.0 31.0 C 815.7 30.3, 810.3 31.8, 805.0 32.0 C 799.7 32.2, 794.3 31.2, 789.0 32.0 C 783.7 32.8, 778.3 35.2, 773.0 37.0 C 767.7 38.8, 761.7 40.0, 757.0 43.0 C 752.3 46.0, 748.7 50.3, 745.0 55.0 C 741.3 59.7, 738.0 65.8, 735.0 71.0 C 732.0 76.2, 731.0 83.5, 727.0 86.0 C 723.0 88.5, 716.3 87.3, 711.0 86.0 C 705.7 84.7, 700.3 80.8, 695.0 78.0 C 689.7 75.2, 684.3 71.3, 679.0 69.0 C 673.7 66.7, 668.3 65.3, 663.0 64.0 C 657.7 62.7, 652.3 62.3, 647.0 61.0 C 641.7 59.7, 636.3 57.2, 631.0 56.0 C 625.7 54.8, 620.3 54.7, 615.0 54.0 C 609.7 53.3, 604.3 52.3, 599.0 52.0 C 593.7 51.7, 588.3 51.8, 583.0 52.0 C 577.7 52.2, 572.3 52.5, 567.0 53.0 C 561.7 53.5, 556.3 54.2, 551.0 55.0 C 545.7 55.8, 540.3 56.8, 535.0 58.0 C 529.7 59.2, 524.3 60.8, 519.0 62.0 C 513.7 63.2, 508.3 65.2, 503.0 65.0 C 497.7 64.8, 492.3 62.2, 487.0 61.0 C 481.7 59.8, 476.3 59.0, 471.0 58.0 C 465.7 57.0, 460.3 56.0, 455.0 55.0 C 449.7 54.0, 444.3 52.5, 439.0 52.0 C 433.7 51.5, 428.3 52.0, 423.0 52.0 C 417.7 52.0, 412.3 51.5, 407.0 52.0 C 401.7 52.5, 396.3 54.2, 391.0 55.0 C 385.7 55.8, 380.3 55.8, 375.0 57.0 C 369.7 58.2, 364.3 60.2, 359.0 62.0 C 353.7 63.8, 348.3 66.3, 343.0 68.0 C 337.7 69.7, 332.3 69.7, 327.0 72.0 C 321.7 74.3, 316.3 79.5, 311.0 82.0 C 305.7 84.5, 300.3 86.5, 295.0 87.0 C 289.7 87.5, 283.2 87.8, 279.0 85.0 C 274.8 82.2, 273.8 75.2, 270.0 70.0 C 266.2 64.8, 261.0 58.8, 256.0 54.0 C 251.0 49.2, 245.3 44.5, 240.0 41.0 C 234.7 37.5, 229.3 34.7, 224.0 33.0 C 218.7 31.3, 211.3 31.3, 208.0 31.0 C 204.7 30.7, 207.3 30.8, 204.0 31.0 Z" />
    <path fill="#0d6f01" stroke="#0d6f01" stroke-width="8" stroke-linejoin="round" fill-rule="evenodd" d="M 689.0 702.0 C 688.0 702.3, 684.7 705.3, 683.0 707.0 C 681.3 708.7, 680.2 710.5, 679.0 712.0 C 677.8 713.5, 676.8 714.3, 676.0 716.0 C 675.2 717.7, 675.0 720.2, 674.0 722.0 C 673.0 723.8, 671.7 725.2, 670.0 727.0 C 668.3 728.8, 665.7 731.0, 664.0 733.0 C 662.3 735.0, 661.2 737.0, 660.0 739.0 C 658.8 741.0, 658.5 743.0, 657.0 745.0 C 655.5 747.0, 653.0 749.2, 651.0 751.0 C 649.0 752.8, 646.8 754.2, 645.0 756.0 C 643.2 757.8, 641.8 760.0, 640.0 762.0 C 638.2 764.0, 636.0 766.2, 634.0 768.0 C 632.0 769.8, 630.0 771.3, 628.0 773.0 C 626.0 774.7, 624.0 776.3, 622.0 778.0 C 620.0 779.7, 618.0 781.7, 616.0 783.0 C 614.0 784.3, 612.0 785.0, 610.0 786.0 C 608.0 787.0, 606.0 787.7, 604.0 789.0 C 602.0 790.3, 600.0 792.2, 598.0 794.0 C 596.0 795.8, 594.0 798.3, 592.0 800.0 C 590.0 801.7, 588.0 803.0, 586.0 804.0 C 584.0 805.0, 582.0 805.2, 580.0 806.0 C 578.0 806.8, 576.0 807.7, 574.0 809.0 C 572.0 810.3, 570.0 812.5, 568.0 814.0 C 566.0 815.5, 564.0 817.0, 562.0 818.0 C 560.0 819.0, 558.0 819.3, 556.0 820.0 C 554.0 820.7, 552.0 821.2, 550.0 822.0 C 548.0 822.8, 546.0 823.7, 544.0 825.0 C 542.0 826.3, 540.0 828.5, 538.0 830.0 C 536.0 831.5, 534.0 833.2, 532.0 834.0 C 530.0 834.8, 528.0 834.7, 526.0 835.0 C 524.0 835.3, 522.0 835.8, 520.0 836.0 C 518.0 836.2, 516.0 836.0, 514.0 836.0 C 512.0 836.0, 510.0 836.0, 508.0 836.0 C 506.0 836.0, 504.0 836.0, 502.0 836.0 C 500.0 836.0, 498.0 836.0, 496.0 836.0 C 494.0 836.0, 492.0 836.0, 490.0 836.0 C 488.0 836.0, 486.0 836.3, 484.0 836.0 C 482.0 835.7, 480.0 834.7, 478.0 834.0 C 476.0 833.3, 474.0 833.2, 472.0 832.0 C 470.0 830.8, 468.0 828.5, 466.0 827.0 C 464.0 825.5, 462.0 824.2, 460.0 823.0 C 458.0 821.8, 456.0 820.8, 454.0 820.0 C 452.0 819.2, 450.0 818.7, 448.0 818.0 C 446.0 817.3, 444.0 817.2, 442.0 816.0 C 440.0 814.8, 438.0 812.7, 436.0 811.0 C 434.0 809.3, 432.0 807.2, 430.0 806.0 C 428.0 804.8, 426.0 805.0, 424.0 804.0 C 422.0 803.0, 420.0 801.5, 418.0 800.0 C 416.0 798.5, 414.0 796.7, 412.0 795.0 C 410.0 793.3, 408.0 791.3, 406.0 790.0 C 404.0 788.7, 402.0 788.0, 400.0 787.0 C 398.0 786.0, 396.0 785.3, 394.0 784.0 C 392.0 782.7, 390.0 780.7, 388.0 779.0 C 386.0 777.3, 384.0 775.5, 382.0 774.0 C 380.0 772.5, 378.0 771.7, 376.0 770.0 C 374.0 768.3, 371.8 766.0, 370.0 764.0 C 368.2 762.0, 366.8 759.8, 365.0 758.0 C 363.2 756.2, 361.0 754.7, 359.0 753.0 C 357.0 751.3, 354.7 749.8, 353.0 748.0 C 351.3 746.2, 350.2 744.0, 349.0 742.0 C 347.8 740.0, 347.5 738.0, 346.0 736.0 C 344.5 734.0, 341.8 732.0, 340.0 730.0 C 338.2 728.0, 336.2 726.0, 335.0 724.0 C 333.8 722.0, 333.8 720.0, 333.0 718.0 C 332.2 716.0, 330.7 714.0, 330.0 712.0 C 329.3 710.0, 330.0 707.2, 329.0 706.0 C 328.0 704.8, 325.2 704.2, 324.0 705.0 C 322.8 705.8, 322.5 709.0, 322.0 711.0 C 321.5 713.0, 321.2 715.0, 321.0 717.0 C 320.8 719.0, 320.8 721.0, 321.0 723.0 C 321.2 725.0, 321.7 727.0, 322.0 729.0 C 322.3 731.0, 322.5 733.0, 323.0 735.0 C 323.5 737.0, 324.2 739.0, 325.0 741.0 C 325.8 743.0, 327.3 745.0, 328.0 747.0 C 328.7 749.0, 328.5 751.0, 329.0 753.0 C 329.5 755.0, 330.7 757.0, 331.0 759.0 C 331.3 761.0, 330.8 763.0, 331.0 765.0 C 331.2 767.0, 331.5 769.0, 332.0 771.0 C 332.5 773.0, 333.3 775.0, 334.0 777.0 C 334.7 779.0, 335.5 781.0, 336.0 783.0 C 336.5 785.0, 336.7 787.0, 337.0 789.0 C 337.3 791.0, 337.7 793.0, 338.0 795.0 C 338.3 797.0, 338.7 799.0, 339.0 801.0 C 339.3 803.0, 339.7 805.0, 340.0 807.0 C 340.3 809.0, 340.7 811.0, 341.0 813.0 C 341.3 815.0, 341.3 817.0, 342.0 819.0 C 342.7 821.0, 344.2 823.0, 345.0 825.0 C 345.8 827.0, 346.3 829.0, 347.0 831.0 C 347.7 833.0, 348.2 835.0, 349.0 837.0 C 349.8 839.0, 351.3 841.0, 352.0 843.0 C 352.7 845.0, 352.7 847.0, 353.0 849.0 C 353.3 851.0, 353.7 853.0, 354.0 855.0 C 354.3 857.0, 354.5 859.0, 355.0 861.0 C 355.5 863.0, 356.2 865.2, 357.0 867.0 C 357.8 868.8, 358.5 871.7, 360.0 872.0 C 361.5 872.3, 364.0 869.5, 366.0 869.0 C 368.0 868.5, 370.0 869.2, 372.0 869.0 C 374.0 868.8, 376.0 868.2, 378.0 868.0 C 380.0 867.8, 382.0 867.7, 384.0 868.0 C 386.0 868.3, 388.0 869.2, 390.0 870.0 C 392.0 870.8, 394.0 871.5, 396.0 873.0 C 398.0 874.5, 400.2 877.0, 402.0 879.0 C 403.8 881.0, 405.2 883.2, 407.0 885.0 C 408.8 886.8, 411.0 889.0, 413.0 890.0 C 415.0 891.0, 417.0 890.7, 419.0 891.0 C 421.0 891.3, 423.0 891.5, 425.0 892.0 C 427.0 892.5, 429.0 893.3, 431.0 894.0 C 433.0 894.7, 435.0 895.0, 437.0 896.0 C 439.0 897.0, 441.0 898.8, 443.0 900.0 C 445.0 901.2, 447.0 902.3, 449.0 903.0 C 451.0 903.7, 453.0 903.5, 455.0 904.0 C 457.0 904.5, 459.0 905.5, 461.0 906.0 C 463.0 906.5, 465.0 906.8, 467.0 907.0 C 469.0 907.2, 471.0 906.8, 473.0 907.0 C 475.0 907.2, 477.0 907.8, 479.0 908.0 C 481.0 908.2, 483.0 908.0, 485.0 908.0 C 487.0 908.0, 489.0 908.0, 491.0 908.0 C 493.0 908.0, 495.0 907.8, 497.0 908.0 C 499.0 908.2, 501.0 908.8, 503.0 909.0 C 505.0 909.2, 507.0 909.0, 509.0 909.0 C 511.0 909.0, 513.0 909.2, 515.0 909.0 C 517.0 908.8, 519.0 908.2, 521.0 908.0 C 523.0 907.8, 525.0 908.2, 527.0 908.0 C 529.0 907.8, 531.0 907.2, 533.0 907.0 C 535.0 906.8, 537.0 907.2, 539.0 907.0 C 541.0 906.8, 543.0 906.3, 545.0 906.0 C 547.0 905.7, 549.0 905.5, 551.0 905.0 C 553.0 904.5, 555.0 903.8, 557.0 903.0 C 559.0 902.2, 561.0 901.0, 563.0 900.0 C 565.0 899.0, 567.0 897.8, 569.0 897.0 C 571.0 896.2, 573.0 895.7, 575.0 895.0 C 577.0 894.3, 579.0 893.5, 581.0 893.0 C 583.0 892.5, 585.0 892.3, 587.0 892.0 C 589.0 891.7, 591.0 891.7, 593.0 891.0 C 595.0 890.3, 597.2 889.5, 599.0 888.0 C 600.8 886.5, 602.2 884.0, 604.0 882.0 C 605.8 880.0, 608.0 877.7, 610.0 876.0 C 612.0 874.3, 614.0 873.2, 616.0 872.0 C 618.0 870.8, 620.0 869.7, 622.0 869.0 C 624.0 868.3, 626.0 868.2, 628.0 868.0 C 630.0 867.8, 632.2 867.2, 634.0 868.0 C 635.8 868.8, 637.2 872.0, 639.0 873.0 C 640.8 874.0, 643.0 874.0, 645.0 874.0 C 647.0 874.0, 649.7 874.2, 651.0 873.0 C 652.3 871.8, 652.5 869.0, 653.0 867.0 C 653.5 865.0, 653.7 863.0, 654.0 861.0 C 654.3 859.0, 654.5 857.0, 655.0 855.0 C 655.5 853.0, 656.3 851.0, 657.0 849.0 C 657.7 847.0, 658.2 845.0, 659.0 843.0 C 659.8 841.0, 661.0 839.0, 662.0 837.0 C 663.0 835.0, 664.2 833.0, 665.0 831.0 C 665.8 829.0, 666.5 827.0, 667.0 825.0 C 667.5 823.0, 667.7 821.0, 668.0 819.0 C 668.3 817.0, 668.7 815.0, 669.0 813.0 C 669.3 811.0, 669.7 809.0, 670.0 807.0 C 670.3 805.0, 670.7 803.0, 671.0 801.0 C 671.3 799.0, 671.5 797.0, 672.0 795.0 C 672.5 793.0, 673.3 791.0, 674.0 789.0 C 674.7 787.0, 675.3 785.0, 676.0 783.0 C 676.7 781.0, 677.3 779.0, 678.0 777.0 C 678.7 775.0, 679.5 773.0, 680.0 771.0 C 680.5 769.0, 680.7 767.0, 681.0 765.0 C 681.3 763.0, 681.7 761.0, 682.0 759.0 C 682.3 757.0, 682.7 755.0, 683.0 753.0 C 683.3 751.0, 683.7 749.0, 684.0 747.0 C 684.3 745.0, 684.7 743.0, 685.0 741.0 C 685.3 739.0, 685.8 737.0, 686.0 735.0 C 686.2 733.0, 685.8 731.0, 686.0 729.0 C 686.2 727.0, 686.7 725.0, 687.0 723.0 C 687.3 721.0, 687.8 719.0, 688.0 717.0 C 688.2 715.0, 687.8 713.0, 688.0 711.0 C 688.2 709.0, 688.8 706.5, 689.0 705.0 C 689.2 703.5, 690.0 701.7, 689.0 702.0 Z M 816.0 404.0 C 813.2 404.3, 810.0 407.3, 807.0 408.0 C 804.0 408.7, 801.0 408.2, 798.0 408.0 C 795.0 407.8, 792.0 406.8, 789.0 407.0 C 786.0 407.2, 782.2 407.2, 780.0 409.0 C 777.8 410.8, 776.7 415.0, 776.0 418.0 C 775.3 421.0, 776.2 424.0, 776.0 427.0 C 775.8 430.0, 773.8 433.5, 775.0 436.0 C 776.2 438.5, 780.2 440.2, 783.0 442.0 C 785.8 443.8, 789.5 444.7, 792.0 447.0 C 794.5 449.3, 796.0 453.2, 798.0 456.0 C 800.0 458.8, 802.5 461.2, 804.0 464.0 C 805.5 466.8, 806.0 470.0, 807.0 473.0 C 808.0 476.0, 808.8 479.0, 810.0 482.0 C 811.2 485.0, 812.8 488.0, 814.0 491.0 C 815.2 494.0, 815.5 497.0, 817.0 500.0 C 818.5 503.0, 821.0 506.0, 823.0 509.0 C 825.0 512.0, 827.5 515.0, 829.0 518.0 C 830.5 521.0, 830.7 524.0, 832.0 527.0 C 833.3 530.0, 834.7 533.0, 837.0 536.0 C 839.3 539.0, 843.0 542.0, 846.0 545.0 C 849.0 548.0, 852.0 551.2, 855.0 554.0 C 858.0 556.8, 861.2 559.2, 864.0 562.0 C 866.8 564.8, 869.2 568.2, 872.0 571.0 C 874.8 573.8, 879.8 576.2, 881.0 579.0 C 882.2 581.8, 880.8 586.2, 879.0 588.0 C 877.2 589.8, 873.0 589.8, 870.0 590.0 C 867.0 590.2, 864.0 589.7, 861.0 589.0 C 858.0 588.3, 855.0 586.5, 852.0 586.0 C 849.0 585.5, 846.0 585.8, 843.0 586.0 C 840.0 586.2, 837.0 586.2, 834.0 587.0 C 831.0 587.8, 827.8 588.8, 825.0 591.0 C 822.2 593.2, 818.8 597.0, 817.0 600.0 C 815.2 603.0, 814.8 606.0, 814.0 609.0 C 813.2 612.0, 812.7 615.0, 812.0 618.0 C 811.3 621.0, 810.7 624.0, 810.0 627.0 C 809.3 630.0, 808.7 633.0, 808.0 636.0 C 807.3 639.0, 806.7 642.0, 806.0 645.0 C 805.3 648.0, 804.7 651.0, 804.0 654.0 C 803.3 657.0, 803.2 660.0, 802.0 663.0 C 800.8 666.0, 798.5 669.0, 797.0 672.0 C 795.5 675.0, 794.0 678.0, 793.0 681.0 C 792.0 684.0, 791.7 687.0, 791.0 690.0 C 790.3 693.0, 789.8 696.0, 789.0 699.0 C 788.2 702.0, 787.7 705.0, 786.0 708.0 C 784.3 711.0, 780.8 714.0, 779.0 717.0 C 777.2 720.0, 776.2 723.0, 775.0 726.0 C 773.8 729.0, 773.3 732.0, 772.0 735.0 C 770.7 738.0, 769.2 741.3, 767.0 744.0 C 764.8 746.7, 761.0 748.3, 759.0 751.0 C 757.0 753.7, 756.3 757.0, 755.0 760.0 C 753.7 763.0, 752.8 766.0, 751.0 769.0 C 749.2 772.0, 745.8 775.0, 744.0 778.0 C 742.2 781.0, 741.3 784.0, 740.0 787.0 C 738.7 790.0, 737.5 793.0, 736.0 796.0 C 734.5 799.0, 733.0 802.0, 731.0 805.0 C 729.0 808.0, 725.7 811.0, 724.0 814.0 C 722.3 817.0, 722.7 820.0, 721.0 823.0 C 719.3 826.0, 716.3 829.0, 714.0 832.0 C 711.7 835.0, 708.8 838.0, 707.0 841.0 C 705.2 844.0, 704.8 847.0, 703.0 850.0 C 701.2 853.0, 698.3 856.0, 696.0 859.0 C 693.7 862.0, 691.3 865.0, 689.0 868.0 C 686.7 871.0, 684.2 874.0, 682.0 877.0 C 679.8 880.0, 678.5 883.3, 676.0 886.0 C 673.5 888.7, 670.0 891.3, 667.0 893.0 C 664.0 894.7, 660.8 894.3, 658.0 896.0 C 655.2 897.7, 652.7 900.7, 650.0 903.0 C 647.3 905.3, 644.0 907.7, 642.0 910.0 C 640.0 912.3, 637.3 915.3, 638.0 917.0 C 638.7 918.7, 643.3 920.7, 646.0 920.0 C 648.7 919.3, 651.2 915.5, 654.0 913.0 C 656.8 910.5, 660.0 907.0, 663.0 905.0 C 666.0 903.0, 669.0 901.8, 672.0 901.0 C 675.0 900.2, 678.0 900.2, 681.0 900.0 C 684.0 899.8, 687.0 900.0, 690.0 900.0 C 693.0 900.0, 696.0 899.8, 699.0 900.0 C 702.0 900.2, 705.0 900.8, 708.0 901.0 C 711.0 901.2, 714.0 901.0, 717.0 901.0 C 720.0 901.0, 723.0 901.2, 726.0 901.0 C 729.0 900.8, 732.0 900.0, 735.0 900.0 C 738.0 900.0, 741.0 900.8, 744.0 901.0 C 747.0 901.2, 750.0 901.0, 753.0 901.0 C 756.0 901.0, 759.0 901.2, 762.0 901.0 C 765.0 900.8, 768.0 900.3, 771.0 900.0 C 774.0 899.7, 777.0 899.0, 780.0 899.0 C 783.0 899.0, 786.0 899.2, 789.0 900.0 C 792.0 900.8, 795.0 902.2, 798.0 904.0 C 801.0 905.8, 804.0 909.0, 807.0 911.0 C 810.0 913.0, 813.0 914.7, 816.0 916.0 C 819.0 917.3, 822.0 918.2, 825.0 919.0 C 828.0 919.8, 831.0 919.8, 834.0 921.0 C 837.0 922.2, 840.2 924.3, 843.0 926.0 C 845.8 927.7, 848.2 929.7, 851.0 931.0 C 853.8 932.3, 857.0 933.3, 860.0 934.0 C 863.0 934.7, 866.0 934.8, 869.0 935.0 C 872.0 935.2, 875.0 935.0, 878.0 935.0 C 881.0 935.0, 884.0 935.0, 887.0 935.0 C 890.0 935.0, 893.0 935.2, 896.0 935.0 C 899.0 934.8, 902.0 934.2, 905.0 934.0 C 908.0 933.8, 911.0 934.0, 914.0 934.0 C 917.0 934.0, 920.0 934.2, 923.0 934.0 C 926.0 933.8, 929.0 933.3, 932.0 933.0 C 935.0 932.7, 938.3 933.2, 941.0 932.0 C 943.7 930.8, 946.8 928.5, 948.0 926.0 C 949.2 923.5, 948.7 920.0, 948.0 917.0 C 947.3 914.0, 946.2 910.8, 944.0 908.0 C 941.8 905.2, 937.8 902.5, 935.0 900.0 C 932.2 897.5, 929.8 895.2, 927.0 893.0 C 924.2 890.8, 920.8 889.3, 918.0 887.0 C 915.2 884.7, 912.7 881.8, 910.0 879.0 C 907.3 876.2, 904.0 873.0, 902.0 870.0 C 900.0 867.0, 900.0 864.0, 898.0 861.0 C 896.0 858.0, 891.8 855.0, 890.0 852.0 C 888.2 849.0, 888.0 846.0, 887.0 843.0 C 886.0 840.0, 885.3 837.0, 884.0 834.0 C 882.7 831.0, 880.8 827.8, 879.0 825.0 C 877.2 822.2, 874.2 819.8, 873.0 817.0 C 871.8 814.2, 872.5 811.0, 872.0 808.0 C 871.5 805.0, 870.7 801.8, 870.0 799.0 C 869.3 796.2, 869.7 793.3, 868.0 791.0 C 866.3 788.7, 861.8 787.5, 860.0 785.0 C 858.2 782.5, 858.0 779.0, 857.0 776.0 C 856.0 773.0, 854.7 770.0, 854.0 767.0 C 853.3 764.0, 853.5 761.0, 853.0 758.0 C 852.5 755.0, 851.5 752.0, 851.0 749.0 C 850.5 746.0, 850.3 743.0, 850.0 740.0 C 849.7 737.0, 849.5 734.0, 849.0 731.0 C 848.5 728.0, 847.7 725.0, 847.0 722.0 C 846.3 719.0, 846.0 716.0, 845.0 713.0 C 844.0 710.0, 842.2 707.0, 841.0 704.0 C 839.8 701.0, 838.5 698.0, 838.0 695.0 C 837.5 692.0, 838.0 689.0, 838.0 686.0 C 838.0 683.0, 838.0 680.0, 838.0 677.0 C 838.0 674.0, 838.0 671.0, 838.0 668.0 C 838.0 665.0, 837.8 662.0, 838.0 659.0 C 838.2 656.0, 838.8 653.0, 839.0 650.0 C 839.2 647.0, 839.2 644.0, 839.0 641.0 C 838.8 638.0, 838.3 635.0, 838.0 632.0 C 837.7 629.0, 837.2 626.0, 837.0 623.0 C 836.8 620.0, 837.2 617.0, 837.0 614.0 C 836.8 611.0, 835.0 607.8, 836.0 605.0 C 837.0 602.2, 840.3 598.2, 843.0 597.0 C 845.7 595.8, 849.0 597.8, 852.0 598.0 C 855.0 598.2, 858.0 598.0, 861.0 598.0 C 864.0 598.0, 867.0 598.0, 870.0 598.0 C 873.0 598.0, 876.0 598.2, 879.0 598.0 C 882.0 597.8, 885.0 597.8, 888.0 597.0 C 891.0 596.2, 895.2 595.2, 897.0 593.0 C 898.8 590.8, 899.0 587.0, 899.0 584.0 C 899.0 581.0, 898.8 577.7, 897.0 575.0 C 895.2 572.3, 891.0 570.2, 888.0 568.0 C 885.0 565.8, 881.7 564.5, 879.0 562.0 C 876.3 559.5, 874.7 555.7, 872.0 553.0 C 869.3 550.3, 865.7 548.7, 863.0 546.0 C 860.3 543.3, 858.7 539.7, 856.0 537.0 C 853.3 534.3, 849.7 532.5, 847.0 530.0 C 844.3 527.5, 841.7 524.8, 840.0 522.0 C 838.3 519.2, 837.5 516.0, 837.0 513.0 C 836.5 510.0, 837.2 507.0, 837.0 504.0 C 836.8 501.0, 836.2 498.0, 836.0 495.0 C 835.8 492.0, 836.0 489.0, 836.0 486.0 C 836.0 483.0, 836.2 480.0, 836.0 477.0 C 835.8 474.0, 835.0 471.0, 835.0 468.0 C 835.0 465.0, 836.0 462.0, 836.0 459.0 C 836.0 456.0, 835.5 453.0, 835.0 450.0 C 834.5 447.0, 833.7 444.0, 833.0 441.0 C 832.3 438.0, 831.0 435.0, 831.0 432.0 C 831.0 429.0, 833.3 425.8, 833.0 423.0 C 832.7 420.2, 830.5 417.8, 829.0 415.0 C 827.5 412.2, 826.2 407.8, 824.0 406.0 C 821.8 404.2, 818.8 403.7, 816.0 404.0 Z M 185.0 404.0 C 183.7 405.5, 182.5 410.0, 182.0 413.0 C 181.5 416.0, 181.7 419.0, 182.0 422.0 C 182.3 425.0, 184.2 428.0, 184.0 431.0 C 183.8 434.0, 182.5 437.0, 181.0 440.0 C 179.5 443.0, 176.3 446.0, 175.0 449.0 C 173.7 452.0, 173.3 455.0, 173.0 458.0 C 172.7 461.0, 172.8 464.0, 173.0 467.0 C 173.2 470.0, 173.7 473.0, 174.0 476.0 C 174.3 479.0, 175.0 482.0, 175.0 485.0 C 175.0 488.0, 174.8 491.0, 174.0 494.0 C 173.2 497.0, 170.8 500.0, 170.0 503.0 C 169.2 506.0, 169.8 509.0, 169.0 512.0 C 168.2 515.0, 167.2 518.0, 165.0 521.0 C 162.8 524.0, 159.0 527.0, 156.0 530.0 C 153.0 533.0, 149.8 536.2, 147.0 539.0 C 144.2 541.8, 141.7 544.3, 139.0 547.0 C 136.3 549.7, 133.7 552.2, 131.0 555.0 C 128.3 557.8, 125.8 561.3, 123.0 564.0 C 120.2 566.7, 116.7 568.7, 114.0 571.0 C 111.3 573.3, 108.3 575.3, 107.0 578.0 C 105.7 580.7, 105.5 584.2, 106.0 587.0 C 106.5 589.8, 107.8 593.2, 110.0 595.0 C 112.2 596.8, 116.0 597.3, 119.0 598.0 C 122.0 598.7, 125.0 598.8, 128.0 599.0 C 131.0 599.2, 134.0 599.0, 137.0 599.0 C 140.0 599.0, 143.0 599.0, 146.0 599.0 C 149.0 599.0, 152.0 599.0, 155.0 599.0 C 158.0 599.0, 161.5 597.8, 164.0 599.0 C 166.5 600.2, 169.2 603.3, 170.0 606.0 C 170.8 608.7, 169.3 612.0, 169.0 615.0 C 168.7 618.0, 168.0 621.0, 168.0 624.0 C 168.0 627.0, 168.8 630.0, 169.0 633.0 C 169.2 636.0, 168.8 639.0, 169.0 642.0 C 169.2 645.0, 169.8 648.0, 170.0 651.0 C 170.2 654.0, 170.0 657.0, 170.0 660.0 C 170.0 663.0, 170.0 666.0, 170.0 669.0 C 170.0 672.0, 170.0 675.0, 170.0 678.0 C 170.0 681.0, 170.3 684.0, 170.0 687.0 C 169.7 690.0, 169.0 693.0, 168.0 696.0 C 167.0 699.0, 165.2 702.0, 164.0 705.0 C 162.8 708.0, 161.5 711.0, 161.0 714.0 C 160.5 717.0, 161.3 720.0, 161.0 723.0 C 160.7 726.0, 159.7 729.0, 159.0 732.0 C 158.3 735.0, 157.5 738.0, 157.0 741.0 C 156.5 744.0, 156.5 747.0, 156.0 750.0 C 155.5 753.0, 154.5 756.0, 154.0 759.0 C 153.5 762.0, 153.3 765.0, 153.0 768.0 C 152.7 771.0, 152.7 774.0, 152.0 777.0 C 151.3 780.0, 150.3 783.0, 149.0 786.0 C 147.7 789.0, 145.7 792.0, 144.0 795.0 C 142.3 798.0, 140.2 801.0, 139.0 804.0 C 137.8 807.0, 137.7 810.0, 137.0 813.0 C 136.3 816.0, 136.3 819.0, 135.0 822.0 C 133.7 825.0, 131.2 828.2, 129.0 831.0 C 126.8 833.8, 123.7 836.2, 122.0 839.0 C 120.3 841.8, 120.5 845.0, 119.0 848.0 C 117.5 851.0, 114.7 854.0, 113.0 857.0 C 111.3 860.0, 111.2 863.0, 109.0 866.0 C 106.8 869.0, 103.0 872.0, 100.0 875.0 C 97.0 878.0, 93.8 881.2, 91.0 884.0 C 88.2 886.8, 85.8 889.5, 83.0 892.0 C 80.2 894.5, 76.5 896.3, 74.0 899.0 C 71.5 901.7, 69.7 905.0, 68.0 908.0 C 66.3 911.0, 64.7 914.0, 64.0 917.0 C 63.3 920.0, 62.5 923.5, 64.0 926.0 C 65.5 928.5, 70.0 930.8, 73.0 932.0 C 76.0 933.2, 79.0 933.0, 82.0 933.0 C 85.0 933.0, 88.0 932.2, 91.0 932.0 C 94.0 931.8, 97.0 932.0, 100.0 932.0 C 103.0 932.0, 106.0 932.2, 109.0 932.0 C 112.0 931.8, 115.0 931.2, 118.0 931.0 C 121.0 930.8, 124.0 931.3, 127.0 931.0 C 130.0 930.7, 133.0 929.3, 136.0 929.0 C 139.0 928.7, 142.0 929.2, 145.0 929.0 C 148.0 928.8, 151.0 928.8, 154.0 928.0 C 157.0 927.2, 160.0 925.2, 163.0 924.0 C 166.0 922.8, 169.0 921.7, 172.0 921.0 C 175.0 920.3, 178.0 920.2, 181.0 920.0 C 184.0 919.8, 187.3 921.3, 190.0 920.0 C 192.7 918.7, 194.5 914.7, 197.0 912.0 C 199.5 909.3, 202.2 905.8, 205.0 904.0 C 207.8 902.2, 211.0 901.8, 214.0 901.0 C 217.0 900.2, 220.0 899.3, 223.0 899.0 C 226.0 898.7, 229.0 899.0, 232.0 899.0 C 235.0 899.0, 238.0 898.8, 241.0 899.0 C 244.0 899.2, 247.0 899.8, 250.0 900.0 C 253.0 900.2, 256.0 900.0, 259.0 900.0 C 262.0 900.0, 265.0 900.0, 268.0 900.0 C 271.0 900.0, 274.0 900.0, 277.0 900.0 C 280.0 900.0, 283.0 900.0, 286.0 900.0 C 289.0 900.0, 292.0 899.8, 295.0 900.0 C 298.0 900.2, 301.0 900.8, 304.0 901.0 C 307.0 901.2, 310.0 901.2, 313.0 901.0 C 316.0 900.8, 319.0 900.2, 322.0 900.0 C 325.0 899.8, 328.0 899.8, 331.0 900.0 C 334.0 900.2, 337.0 899.8, 340.0 901.0 C 343.0 902.2, 346.2 904.5, 349.0 907.0 C 351.8 909.5, 354.3 913.2, 357.0 916.0 C 359.7 918.8, 362.3 921.3, 365.0 924.0 C 367.7 926.7, 370.2 930.3, 373.0 932.0 C 375.8 933.7, 380.2 934.8, 382.0 934.0 C 383.8 933.2, 384.5 929.5, 384.0 927.0 C 383.5 924.5, 381.2 921.2, 379.0 919.0 C 376.8 916.8, 373.7 916.2, 371.0 914.0 C 368.3 911.8, 365.5 908.8, 363.0 906.0 C 360.5 903.2, 358.7 899.3, 356.0 897.0 C 353.3 894.7, 350.0 893.5, 347.0 892.0 C 344.0 890.5, 340.5 890.2, 338.0 888.0 C 335.5 885.8, 334.3 882.0, 332.0 879.0 C 329.7 876.0, 326.3 873.0, 324.0 870.0 C 321.7 867.0, 320.2 864.0, 318.0 861.0 C 315.8 858.0, 313.3 855.0, 311.0 852.0 C 308.7 849.0, 306.0 846.0, 304.0 843.0 C 302.0 840.0, 301.0 837.0, 299.0 834.0 C 297.0 831.0, 294.0 828.0, 292.0 825.0 C 290.0 822.0, 288.5 819.0, 287.0 816.0 C 285.5 813.0, 284.7 810.0, 283.0 807.0 C 281.3 804.0, 279.0 801.0, 277.0 798.0 C 275.0 795.0, 272.5 792.0, 271.0 789.0 C 269.5 786.0, 269.2 783.0, 268.0 780.0 C 266.8 777.0, 266.0 774.0, 264.0 771.0 C 262.0 768.0, 258.0 765.0, 256.0 762.0 C 254.0 759.0, 253.2 756.0, 252.0 753.0 C 250.8 750.0, 250.8 747.0, 249.0 744.0 C 247.2 741.0, 243.5 738.0, 241.0 735.0 C 238.5 732.0, 235.5 729.0, 234.0 726.0 C 232.5 723.0, 232.8 720.0, 232.0 717.0 C 231.2 714.0, 230.5 711.0, 229.0 708.0 C 227.5 705.0, 224.7 702.0, 223.0 699.0 C 221.3 696.0, 220.0 693.0, 219.0 690.0 C 218.0 687.0, 217.7 684.0, 217.0 681.0 C 216.3 678.0, 215.8 675.0, 215.0 672.0 C 214.2 669.0, 213.2 666.0, 212.0 663.0 C 210.8 660.0, 209.3 657.0, 208.0 654.0 C 206.7 651.0, 205.0 648.0, 204.0 645.0 C 203.0 642.0, 202.5 639.0, 202.0 636.0 C 201.5 633.0, 201.3 630.0, 201.0 627.0 C 200.7 624.0, 200.3 621.0, 200.0 618.0 C 199.7 615.0, 199.8 612.0, 199.0 609.0 C 198.2 606.0, 197.0 602.7, 195.0 600.0 C 193.0 597.3, 189.8 595.0, 187.0 593.0 C 184.2 591.0, 181.0 589.2, 178.0 588.0 C 175.0 586.8, 172.0 586.5, 169.0 586.0 C 166.0 585.5, 163.0 585.0, 160.0 585.0 C 157.0 585.0, 154.0 585.5, 151.0 586.0 C 148.0 586.5, 145.0 587.7, 142.0 588.0 C 139.0 588.3, 136.0 588.3, 133.0 588.0 C 130.0 587.7, 125.3 587.8, 124.0 586.0 C 122.7 584.2, 123.5 579.8, 125.0 577.0 C 126.5 574.2, 130.2 571.7, 133.0 569.0 C 135.8 566.3, 139.2 563.8, 142.0 561.0 C 144.8 558.2, 147.2 554.8, 150.0 552.0 C 152.8 549.2, 156.2 546.8, 159.0 544.0 C 161.8 541.2, 164.5 538.0, 167.0 535.0 C 169.5 532.0, 172.5 529.0, 174.0 526.0 C 175.5 523.0, 174.8 520.0, 176.0 517.0 C 177.2 514.0, 178.8 511.0, 181.0 508.0 C 183.2 505.0, 187.2 502.0, 189.0 499.0 C 190.8 496.0, 191.0 493.0, 192.0 490.0 C 193.0 487.0, 194.0 484.0, 195.0 481.0 C 196.0 478.0, 197.2 475.0, 198.0 472.0 C 198.8 469.0, 198.8 466.0, 200.0 463.0 C 201.2 460.0, 202.8 456.3, 205.0 454.0 C 207.2 451.7, 211.2 451.3, 213.0 449.0 C 214.8 446.7, 215.2 443.0, 216.0 440.0 C 216.8 437.0, 217.0 434.0, 218.0 431.0 C 219.0 428.0, 220.7 425.0, 222.0 422.0 C 223.3 419.0, 226.8 415.3, 226.0 413.0 C 225.2 410.7, 220.0 408.8, 217.0 408.0 C 214.0 407.2, 211.0 408.0, 208.0 408.0 C 205.0 408.0, 202.0 408.7, 199.0 408.0 C 196.0 407.3, 192.3 404.7, 190.0 404.0 C 187.7 403.3, 186.3 402.5, 185.0 404.0 Z M 577.0 126.0 C 575.7 126.2, 573.0 126.5, 571.0 127.0 C 569.0 127.5, 567.0 128.5, 565.0 129.0 C 563.0 129.5, 561.0 129.3, 559.0 130.0 C 557.0 130.7, 555.0 132.3, 553.0 133.0 C 551.0 133.7, 549.0 133.7, 547.0 134.0 C 545.0 134.3, 543.0 134.7, 541.0 135.0 C 539.0 135.3, 537.0 135.7, 535.0 136.0 C 533.0 136.3, 531.0 136.7, 529.0 137.0 C 527.0 137.3, 525.0 137.7, 523.0 138.0 C 521.0 138.3, 518.7 137.8, 517.0 139.0 C 515.3 140.2, 514.7 143.2, 513.0 145.0 C 511.3 146.8, 509.0 149.0, 507.0 150.0 C 505.0 151.0, 503.0 151.2, 501.0 151.0 C 499.0 150.8, 496.7 150.2, 495.0 149.0 C 493.3 147.8, 492.7 145.7, 491.0 144.0 C 489.3 142.3, 487.0 140.2, 485.0 139.0 C 483.0 137.8, 481.0 137.5, 479.0 137.0 C 477.0 136.5, 475.0 136.2, 473.0 136.0 C 471.0 135.8, 469.0 136.2, 467.0 136.0 C 465.0 135.8, 463.0 135.5, 461.0 135.0 C 459.0 134.5, 457.0 133.7, 455.0 133.0 C 453.0 132.3, 451.0 131.7, 449.0 131.0 C 447.0 130.3, 445.0 129.7, 443.0 129.0 C 441.0 128.3, 439.0 127.3, 437.0 127.0 C 435.0 126.7, 433.0 127.0, 431.0 127.0 C 429.0 127.0, 427.0 127.0, 425.0 127.0 C 423.0 127.0, 421.0 127.0, 419.0 127.0 C 417.0 127.0, 415.0 126.8, 413.0 127.0 C 411.0 127.2, 409.0 127.5, 407.0 128.0 C 405.0 128.5, 403.0 129.7, 401.0 130.0 C 399.0 130.3, 397.0 129.8, 395.0 130.0 C 393.0 130.2, 391.0 130.3, 389.0 131.0 C 387.0 131.7, 385.0 133.3, 383.0 134.0 C 381.0 134.7, 379.0 134.5, 377.0 135.0 C 375.0 135.5, 373.0 136.5, 371.0 137.0 C 369.0 137.5, 367.0 137.8, 365.0 138.0 C 363.0 138.2, 361.0 137.5, 359.0 138.0 C 357.0 138.5, 354.8 139.7, 353.0 141.0 C 351.2 142.3, 349.8 144.5, 348.0 146.0 C 346.2 147.5, 344.0 149.0, 342.0 150.0 C 340.0 151.0, 338.0 151.5, 336.0 152.0 C 334.0 152.5, 332.0 152.2, 330.0 153.0 C 328.0 153.8, 325.7 155.3, 324.0 157.0 C 322.3 158.7, 321.7 161.3, 320.0 163.0 C 318.3 164.7, 316.0 165.8, 314.0 167.0 C 312.0 168.2, 309.8 168.7, 308.0 170.0 C 306.2 171.3, 304.8 173.2, 303.0 175.0 C 301.2 176.8, 298.8 179.3, 297.0 181.0 C 295.2 182.7, 293.8 184.2, 292.0 185.0 C 290.2 185.8, 287.8 185.2, 286.0 186.0 C 284.2 186.8, 282.5 188.3, 281.0 190.0 C 279.5 191.7, 277.8 194.0, 277.0 196.0 C 276.2 198.0, 276.2 200.0, 276.0 202.0 C 275.8 204.0, 275.0 206.3, 276.0 208.0 C 277.0 209.7, 280.5 210.3, 282.0 212.0 C 283.5 213.7, 284.5 216.0, 285.0 218.0 C 285.5 220.0, 285.3 222.0, 285.0 224.0 C 284.7 226.0, 283.0 228.0, 283.0 230.0 C 283.0 232.0, 284.0 234.0, 285.0 236.0 C 286.0 238.0, 287.7 240.0, 289.0 242.0 C 290.3 244.0, 292.3 246.0, 293.0 248.0 C 293.7 250.0, 292.8 252.0, 293.0 254.0 C 293.2 256.0, 293.3 258.0, 294.0 260.0 C 294.7 262.0, 295.7 264.0, 297.0 266.0 C 298.3 268.0, 300.2 270.2, 302.0 272.0 C 303.8 273.8, 306.0 275.2, 308.0 277.0 C 310.0 278.8, 312.2 281.0, 314.0 283.0 C 315.8 285.0, 317.2 287.2, 319.0 289.0 C 320.8 290.8, 323.0 292.7, 325.0 294.0 C 327.0 295.3, 329.0 296.2, 331.0 297.0 C 333.0 297.8, 335.0 298.5, 337.0 299.0 C 339.0 299.5, 341.0 299.5, 343.0 300.0 C 345.0 300.5, 347.0 301.5, 349.0 302.0 C 351.0 302.5, 353.0 302.8, 355.0 303.0 C 357.0 303.2, 359.0 303.0, 361.0 303.0 C 363.0 303.0, 365.0 303.3, 367.0 303.0 C 369.0 302.7, 371.0 301.7, 373.0 301.0 C 375.0 300.3, 377.0 299.5, 379.0 299.0 C 381.0 298.5, 383.0 298.3, 385.0 298.0 C 387.0 297.7, 389.0 297.2, 391.0 297.0 C 393.0 296.8, 395.0 297.2, 397.0 297.0 C 399.0 296.8, 401.0 296.3, 403.0 296.0 C 405.0 295.7, 407.0 295.3, 409.0 295.0 C 411.0 294.7, 413.0 294.7, 415.0 294.0 C 417.0 293.3, 419.0 292.0, 421.0 291.0 C 423.0 290.0, 425.0 289.0, 427.0 288.0 C 429.0 287.0, 431.0 285.7, 433.0 285.0 C 435.0 284.3, 437.0 284.2, 439.0 284.0 C 441.0 283.8, 443.0 284.0, 445.0 284.0 C 447.0 284.0, 449.0 283.7, 451.0 284.0 C 453.0 284.3, 455.0 285.0, 457.0 286.0 C 459.0 287.0, 461.0 289.0, 463.0 290.0 C 465.0 291.0, 467.0 291.2, 469.0 292.0 C 471.0 292.8, 473.0 294.2, 475.0 295.0 C 477.0 295.8, 479.0 296.0, 481.0 297.0 C 483.0 298.0, 485.3 299.3, 487.0 301.0 C 488.7 302.7, 489.5 305.0, 491.0 307.0 C 492.5 309.0, 494.5 311.0, 496.0 313.0 C 497.5 315.0, 498.5 317.5, 500.0 319.0 C 501.5 320.5, 503.7 322.5, 505.0 322.0 C 506.3 321.5, 506.7 318.0, 508.0 316.0 C 509.3 314.0, 511.2 312.0, 513.0 310.0 C 514.8 308.0, 517.2 305.8, 519.0 304.0 C 520.8 302.2, 522.2 300.3, 524.0 299.0 C 525.8 297.7, 528.0 296.8, 530.0 296.0 C 532.0 295.2, 534.0 294.7, 536.0 294.0 C 538.0 293.3, 540.0 293.0, 542.0 292.0 C 544.0 291.0, 546.0 289.2, 548.0 288.0 C 550.0 286.8, 552.0 285.5, 554.0 285.0 C 556.0 284.5, 558.0 285.0, 560.0 285.0 C 562.0 285.0, 564.0 285.0, 566.0 285.0 C 568.0 285.0, 570.0 284.8, 572.0 285.0 C 574.0 285.2, 576.0 285.3, 578.0 286.0 C 580.0 286.7, 582.0 288.2, 584.0 289.0 C 586.0 289.8, 588.0 290.3, 590.0 291.0 C 592.0 291.7, 594.0 292.5, 596.0 293.0 C 598.0 293.5, 600.0 293.7, 602.0 294.0 C 604.0 294.3, 606.0 294.5, 608.0 295.0 C 610.0 295.5, 612.0 296.5, 614.0 297.0 C 616.0 297.5, 618.0 297.7, 620.0 298.0 C 622.0 298.3, 624.0 298.7, 626.0 299.0 C 628.0 299.3, 630.0 299.7, 632.0 300.0 C 634.0 300.3, 636.0 300.5, 638.0 301.0 C 640.0 301.5, 642.0 302.7, 644.0 303.0 C 646.0 303.3, 648.0 303.2, 650.0 303.0 C 652.0 302.8, 654.0 302.7, 656.0 302.0 C 658.0 301.3, 660.0 299.5, 662.0 299.0 C 664.0 298.5, 666.0 299.2, 668.0 299.0 C 670.0 298.8, 672.0 298.7, 674.0 298.0 C 676.0 297.3, 678.0 296.2, 680.0 295.0 C 682.0 293.8, 684.2 292.5, 686.0 291.0 C 687.8 289.5, 689.3 287.8, 691.0 286.0 C 692.7 284.2, 694.2 281.7, 696.0 280.0 C 697.8 278.3, 700.2 277.7, 702.0 276.0 C 703.8 274.3, 705.8 272.0, 707.0 270.0 C 708.2 268.0, 708.2 266.0, 709.0 264.0 C 709.8 262.0, 711.2 260.0, 712.0 258.0 C 712.8 256.0, 713.2 254.0, 714.0 252.0 C 714.8 250.0, 715.7 248.0, 717.0 246.0 C 718.3 244.0, 720.8 242.0, 722.0 240.0 C 723.2 238.0, 723.5 236.0, 724.0 234.0 C 724.5 232.0, 725.0 230.0, 725.0 228.0 C 725.0 226.0, 724.2 224.0, 724.0 222.0 C 723.8 220.0, 723.3 218.0, 724.0 216.0 C 724.7 214.0, 726.8 211.8, 728.0 210.0 C 729.2 208.2, 730.3 206.8, 731.0 205.0 C 731.7 203.2, 732.3 201.0, 732.0 199.0 C 731.7 197.0, 730.2 195.0, 729.0 193.0 C 727.8 191.0, 726.7 188.3, 725.0 187.0 C 723.3 185.7, 721.0 185.5, 719.0 185.0 C 717.0 184.5, 714.8 185.2, 713.0 184.0 C 711.2 182.8, 709.5 180.0, 708.0 178.0 C 706.5 176.0, 705.7 173.8, 704.0 172.0 C 702.3 170.2, 700.0 168.7, 698.0 167.0 C 696.0 165.3, 694.0 163.5, 692.0 162.0 C 690.0 160.5, 688.0 159.3, 686.0 158.0 C 684.0 156.7, 682.0 155.0, 680.0 154.0 C 678.0 153.0, 676.0 152.7, 674.0 152.0 C 672.0 151.3, 669.8 151.0, 668.0 150.0 C 666.2 149.0, 664.8 147.3, 663.0 146.0 C 661.2 144.7, 659.0 143.2, 657.0 142.0 C 655.0 140.8, 653.0 139.7, 651.0 139.0 C 649.0 138.3, 647.0 138.3, 645.0 138.0 C 643.0 137.7, 641.0 137.3, 639.0 137.0 C 637.0 136.7, 635.0 136.3, 633.0 136.0 C 631.0 135.7, 629.0 135.7, 627.0 135.0 C 625.0 134.3, 623.0 133.0, 621.0 132.0 C 619.0 131.0, 617.0 129.8, 615.0 129.0 C 613.0 128.2, 611.0 127.5, 609.0 127.0 C 607.0 126.5, 605.0 126.2, 603.0 126.0 C 601.0 125.8, 599.0 126.0, 597.0 126.0 C 595.0 126.0, 593.0 126.0, 591.0 126.0 C 589.0 126.0, 587.0 126.0, 585.0 126.0 C 583.0 126.0, 580.3 126.0, 579.0 126.0 C 577.7 126.0, 578.3 125.8, 577.0 126.0 Z" />
    <path fill="#16a400" stroke="#16a400" stroke-width="8" stroke-linejoin="round" fill-rule="evenodd" d="M 637.0 352.0 C 634.3 352.5, 630.3 354.5, 628.0 357.0 C 625.7 359.5, 624.2 363.7, 623.0 367.0 C 621.8 370.3, 622.3 373.7, 621.0 377.0 C 619.7 380.3, 617.5 383.7, 615.0 387.0 C 612.5 390.3, 609.2 394.0, 606.0 397.0 C 602.8 400.0, 599.3 402.5, 596.0 405.0 C 592.7 407.5, 589.3 410.3, 586.0 412.0 C 582.7 413.7, 579.3 414.3, 576.0 415.0 C 572.7 415.7, 569.3 415.8, 566.0 416.0 C 562.7 416.2, 559.3 416.3, 556.0 416.0 C 552.7 415.7, 549.3 415.8, 546.0 414.0 C 542.7 412.2, 539.3 407.8, 536.0 405.0 C 532.7 402.2, 529.2 398.7, 526.0 397.0 C 522.8 395.3, 518.0 393.7, 517.0 395.0 C 516.0 396.3, 518.5 401.7, 520.0 405.0 C 521.5 408.3, 524.0 411.7, 526.0 415.0 C 528.0 418.3, 530.3 421.7, 532.0 425.0 C 533.7 428.3, 534.0 431.7, 536.0 435.0 C 538.0 438.3, 541.8 441.7, 544.0 445.0 C 546.2 448.3, 546.7 451.8, 549.0 455.0 C 551.3 458.2, 555.3 460.8, 558.0 464.0 C 560.7 467.2, 562.2 470.8, 565.0 474.0 C 567.8 477.2, 572.0 480.0, 575.0 483.0 C 578.0 486.0, 580.0 489.7, 583.0 492.0 C 586.0 494.3, 590.7 494.5, 593.0 497.0 C 595.3 499.5, 597.0 503.7, 597.0 507.0 C 597.0 510.3, 593.0 514.0, 593.0 517.0 C 593.0 520.0, 594.7 523.5, 597.0 525.0 C 599.3 526.5, 603.7 525.8, 607.0 526.0 C 610.3 526.2, 613.7 526.0, 617.0 526.0 C 620.3 526.0, 623.7 525.5, 627.0 526.0 C 630.3 526.5, 633.8 526.8, 637.0 529.0 C 640.2 531.2, 642.8 536.8, 646.0 539.0 C 649.2 541.2, 652.7 541.0, 656.0 542.0 C 659.3 543.0, 662.7 543.0, 666.0 545.0 C 669.3 547.0, 672.7 551.8, 676.0 554.0 C 679.3 556.2, 682.7 556.5, 686.0 558.0 C 689.3 559.5, 693.3 560.7, 696.0 563.0 C 698.7 565.3, 700.8 568.8, 702.0 572.0 C 703.2 575.2, 702.8 578.7, 703.0 582.0 C 703.2 585.3, 703.3 588.7, 703.0 592.0 C 702.7 595.3, 701.8 598.7, 701.0 602.0 C 700.2 605.3, 699.2 608.7, 698.0 612.0 C 696.8 615.3, 695.2 618.7, 694.0 622.0 C 692.8 625.3, 691.7 628.7, 691.0 632.0 C 690.3 635.3, 690.2 638.7, 690.0 642.0 C 689.8 645.3, 690.0 648.7, 690.0 652.0 C 690.0 655.3, 690.0 658.7, 690.0 662.0 C 690.0 665.3, 690.3 668.7, 690.0 672.0 C 689.7 675.3, 689.0 678.7, 688.0 682.0 C 687.0 685.3, 685.5 688.7, 684.0 692.0 C 682.5 695.3, 680.0 698.8, 679.0 702.0 C 678.0 705.2, 676.8 710.8, 678.0 711.0 C 679.2 711.2, 684.0 703.5, 686.0 703.0 C 688.0 702.5, 689.7 705.5, 690.0 708.0 C 690.3 710.5, 688.5 714.7, 688.0 718.0 C 687.5 721.3, 687.3 724.7, 687.0 728.0 C 686.7 731.3, 686.3 734.7, 686.0 738.0 C 685.7 741.3, 685.5 744.7, 685.0 748.0 C 684.5 751.3, 683.5 754.7, 683.0 758.0 C 682.5 761.3, 682.7 764.7, 682.0 768.0 C 681.3 771.3, 680.0 774.7, 679.0 778.0 C 678.0 781.3, 677.2 784.7, 676.0 788.0 C 674.8 791.3, 672.8 794.7, 672.0 798.0 C 671.2 801.3, 671.3 804.7, 671.0 808.0 C 670.7 811.3, 670.7 814.7, 670.0 818.0 C 669.3 821.3, 668.2 824.7, 667.0 828.0 C 665.8 831.3, 664.5 834.7, 663.0 838.0 C 661.5 841.3, 659.2 844.7, 658.0 848.0 C 656.8 851.3, 656.7 854.7, 656.0 858.0 C 655.3 861.3, 655.5 864.8, 654.0 868.0 C 652.5 871.2, 649.3 875.7, 647.0 877.0 C 644.7 878.3, 641.2 874.5, 640.0 876.0 C 638.8 877.5, 640.0 882.7, 640.0 886.0 C 640.0 889.3, 640.0 892.7, 640.0 896.0 C 640.0 899.3, 638.8 904.3, 640.0 906.0 C 641.2 907.7, 644.5 907.7, 647.0 906.0 C 649.5 904.3, 652.0 898.2, 655.0 896.0 C 658.0 893.8, 661.7 894.7, 665.0 893.0 C 668.3 891.3, 672.3 888.8, 675.0 886.0 C 677.7 883.2, 678.7 879.3, 681.0 876.0 C 683.3 872.7, 686.2 869.3, 689.0 866.0 C 691.8 862.7, 695.5 859.3, 698.0 856.0 C 700.5 852.7, 702.0 849.3, 704.0 846.0 C 706.0 842.7, 707.7 839.3, 710.0 836.0 C 712.3 832.7, 716.0 829.3, 718.0 826.0 C 720.0 822.7, 720.0 819.3, 722.0 816.0 C 724.0 812.7, 727.8 809.3, 730.0 806.0 C 732.2 802.7, 733.5 799.3, 735.0 796.0 C 736.5 792.7, 737.3 789.3, 739.0 786.0 C 740.7 782.7, 742.8 779.3, 745.0 776.0 C 747.2 772.7, 750.2 769.3, 752.0 766.0 C 753.8 762.7, 754.3 759.3, 756.0 756.0 C 757.7 752.7, 759.7 749.0, 762.0 746.0 C 764.3 743.0, 768.0 741.0, 770.0 738.0 C 772.0 735.0, 772.8 731.3, 774.0 728.0 C 775.2 724.7, 775.2 721.3, 777.0 718.0 C 778.8 714.7, 783.2 711.3, 785.0 708.0 C 786.8 704.7, 787.2 701.3, 788.0 698.0 C 788.8 694.7, 789.2 691.3, 790.0 688.0 C 790.8 684.7, 791.5 681.3, 793.0 678.0 C 794.5 674.7, 797.3 671.3, 799.0 668.0 C 800.7 664.7, 802.0 661.3, 803.0 658.0 C 804.0 654.7, 804.3 651.3, 805.0 648.0 C 805.7 644.7, 806.3 641.3, 807.0 638.0 C 807.7 634.7, 808.3 631.3, 809.0 628.0 C 809.7 624.7, 810.3 621.3, 811.0 618.0 C 811.7 614.7, 812.0 611.3, 813.0 608.0 C 814.0 604.7, 814.7 601.2, 817.0 598.0 C 819.3 594.8, 823.7 591.0, 827.0 589.0 C 830.3 587.0, 833.7 586.7, 837.0 586.0 C 840.3 585.3, 843.7 585.0, 847.0 585.0 C 850.3 585.0, 853.7 585.3, 857.0 586.0 C 860.3 586.7, 863.7 588.7, 867.0 589.0 C 870.3 589.3, 874.8 589.7, 877.0 588.0 C 879.2 586.3, 881.2 582.0, 880.0 579.0 C 878.8 576.0, 873.2 573.2, 870.0 570.0 C 866.8 566.8, 864.2 563.2, 861.0 560.0 C 857.8 556.8, 854.3 554.2, 851.0 551.0 C 847.7 547.8, 844.2 544.3, 841.0 541.0 C 837.8 537.7, 834.0 534.3, 832.0 531.0 C 830.0 527.7, 830.5 524.3, 829.0 521.0 C 827.5 517.7, 825.0 514.3, 823.0 511.0 C 821.0 507.7, 818.7 504.3, 817.0 501.0 C 815.3 497.7, 814.3 494.3, 813.0 491.0 C 811.7 487.7, 810.2 484.3, 809.0 481.0 C 807.8 477.7, 807.2 474.3, 806.0 471.0 C 804.8 467.7, 804.0 464.2, 802.0 461.0 C 800.0 457.8, 796.7 454.8, 794.0 452.0 C 791.3 449.2, 789.0 446.2, 786.0 444.0 C 783.0 441.8, 778.0 441.5, 776.0 439.0 C 774.0 436.5, 774.2 432.3, 774.0 429.0 C 773.8 425.7, 774.2 422.3, 775.0 419.0 C 775.8 415.7, 776.7 411.2, 779.0 409.0 C 781.3 406.8, 785.7 406.3, 789.0 406.0 C 792.3 405.7, 795.7 406.8, 799.0 407.0 C 802.3 407.2, 807.0 407.8, 809.0 407.0 C 811.0 406.2, 812.3 403.3, 811.0 402.0 C 809.7 400.7, 804.3 399.7, 801.0 399.0 C 797.7 398.3, 794.3 398.2, 791.0 398.0 C 787.7 397.8, 784.2 397.0, 781.0 398.0 C 777.8 399.0, 774.2 401.3, 772.0 404.0 C 769.8 406.7, 769.0 410.7, 768.0 414.0 C 767.0 417.3, 767.8 421.2, 766.0 424.0 C 764.2 426.8, 759.8 428.3, 757.0 431.0 C 754.2 433.7, 752.0 437.3, 749.0 440.0 C 746.0 442.7, 742.3 445.7, 739.0 447.0 C 735.7 448.3, 732.3 448.5, 729.0 448.0 C 725.7 447.5, 721.0 446.3, 719.0 444.0 C 717.0 441.7, 717.5 437.3, 717.0 434.0 C 716.5 430.7, 717.3 427.3, 716.0 424.0 C 714.7 420.7, 710.8 417.3, 709.0 414.0 C 707.2 410.7, 706.2 407.3, 705.0 404.0 C 703.8 400.7, 704.0 397.2, 702.0 394.0 C 700.0 390.8, 696.0 388.2, 693.0 385.0 C 690.0 381.8, 687.2 377.8, 684.0 375.0 C 680.8 372.2, 677.3 369.8, 674.0 368.0 C 670.7 366.2, 667.3 365.7, 664.0 364.0 C 660.7 362.3, 657.3 359.7, 654.0 358.0 C 650.7 356.3, 646.8 355.0, 644.0 354.0 C 641.2 353.0, 639.7 351.5, 637.0 352.0 Z M 366.0 352.0 C 363.3 352.3, 360.0 353.3, 357.0 355.0 C 354.0 356.7, 351.0 360.2, 348.0 362.0 C 345.0 363.8, 342.0 364.8, 339.0 366.0 C 336.0 367.2, 332.8 367.2, 330.0 369.0 C 327.2 370.8, 324.8 374.3, 322.0 377.0 C 319.2 379.7, 315.8 382.3, 313.0 385.0 C 310.2 387.7, 306.8 390.2, 305.0 393.0 C 303.2 395.8, 303.0 399.0, 302.0 402.0 C 301.0 405.0, 300.3 408.0, 299.0 411.0 C 297.7 414.0, 295.5 417.0, 294.0 420.0 C 292.5 423.0, 290.8 426.0, 290.0 429.0 C 289.2 432.0, 290.0 435.0, 289.0 438.0 C 288.0 441.0, 286.3 445.3, 284.0 447.0 C 281.7 448.7, 278.0 448.2, 275.0 448.0 C 272.0 447.8, 269.0 447.3, 266.0 446.0 C 263.0 444.7, 260.0 442.3, 257.0 440.0 C 254.0 437.7, 250.8 434.8, 248.0 432.0 C 245.2 429.2, 241.5 426.0, 240.0 423.0 C 238.5 420.0, 239.7 417.0, 239.0 414.0 C 238.3 411.0, 237.7 407.7, 236.0 405.0 C 234.3 402.3, 231.7 399.3, 229.0 398.0 C 226.3 396.7, 223.0 396.8, 220.0 397.0 C 217.0 397.2, 214.0 398.5, 211.0 399.0 C 208.0 399.5, 205.0 399.2, 202.0 400.0 C 199.0 400.8, 193.0 402.8, 193.0 404.0 C 193.0 405.2, 199.0 406.5, 202.0 407.0 C 205.0 407.5, 208.0 406.8, 211.0 407.0 C 214.0 407.2, 217.3 406.7, 220.0 408.0 C 222.7 409.3, 226.7 412.3, 227.0 415.0 C 227.3 417.7, 223.3 421.0, 222.0 424.0 C 220.7 427.0, 220.0 430.0, 219.0 433.0 C 218.0 436.0, 217.0 439.0, 216.0 442.0 C 215.0 445.0, 215.0 448.7, 213.0 451.0 C 211.0 453.3, 206.0 453.7, 204.0 456.0 C 202.0 458.3, 202.0 462.0, 201.0 465.0 C 200.0 468.0, 199.0 471.0, 198.0 474.0 C 197.0 477.0, 196.0 480.0, 195.0 483.0 C 194.0 486.0, 193.0 489.0, 192.0 492.0 C 191.0 495.0, 190.8 498.0, 189.0 501.0 C 187.2 504.0, 183.0 507.0, 181.0 510.0 C 179.0 513.0, 178.2 516.0, 177.0 519.0 C 175.8 522.0, 175.8 525.0, 174.0 528.0 C 172.2 531.0, 168.7 534.0, 166.0 537.0 C 163.3 540.0, 160.8 543.2, 158.0 546.0 C 155.2 548.8, 151.8 551.2, 149.0 554.0 C 146.2 556.8, 143.7 560.2, 141.0 563.0 C 138.3 565.8, 135.7 568.3, 133.0 571.0 C 130.3 573.7, 126.0 576.3, 125.0 579.0 C 124.0 581.7, 125.2 585.7, 127.0 587.0 C 128.8 588.3, 133.0 587.0, 136.0 587.0 C 139.0 587.0, 142.0 587.5, 145.0 587.0 C 148.0 586.5, 151.0 584.5, 154.0 584.0 C 157.0 583.5, 160.0 583.8, 163.0 584.0 C 166.0 584.2, 169.0 584.3, 172.0 585.0 C 175.0 585.7, 178.0 586.7, 181.0 588.0 C 184.0 589.3, 187.3 590.7, 190.0 593.0 C 192.7 595.3, 195.3 599.0, 197.0 602.0 C 198.7 605.0, 199.3 608.0, 200.0 611.0 C 200.7 614.0, 200.7 617.0, 201.0 620.0 C 201.3 623.0, 201.7 626.0, 202.0 629.0 C 202.3 632.0, 202.3 635.0, 203.0 638.0 C 203.7 641.0, 204.8 644.0, 206.0 647.0 C 207.2 650.0, 208.7 653.0, 210.0 656.0 C 211.3 659.0, 212.8 662.0, 214.0 665.0 C 215.2 668.0, 216.3 671.0, 217.0 674.0 C 217.7 677.0, 217.5 680.0, 218.0 683.0 C 218.5 686.0, 218.7 689.0, 220.0 692.0 C 221.3 695.0, 224.3 698.0, 226.0 701.0 C 227.7 704.0, 228.7 707.0, 230.0 710.0 C 231.3 713.0, 233.0 716.0, 234.0 719.0 C 235.0 722.0, 234.3 725.0, 236.0 728.0 C 237.7 731.0, 241.5 734.0, 244.0 737.0 C 246.5 740.0, 249.3 743.0, 251.0 746.0 C 252.7 749.0, 252.7 752.0, 254.0 755.0 C 255.3 758.0, 257.0 761.0, 259.0 764.0 C 261.0 767.0, 264.2 770.0, 266.0 773.0 C 267.8 776.0, 268.8 779.0, 270.0 782.0 C 271.2 785.0, 271.3 788.0, 273.0 791.0 C 274.7 794.0, 278.0 797.0, 280.0 800.0 C 282.0 803.0, 283.5 806.0, 285.0 809.0 C 286.5 812.0, 287.3 815.0, 289.0 818.0 C 290.7 821.0, 293.0 824.0, 295.0 827.0 C 297.0 830.0, 299.0 833.0, 301.0 836.0 C 303.0 839.0, 305.0 842.0, 307.0 845.0 C 309.0 848.0, 310.8 851.0, 313.0 854.0 C 315.2 857.0, 317.7 860.0, 320.0 863.0 C 322.3 866.0, 324.7 869.0, 327.0 872.0 C 329.3 875.0, 331.7 878.2, 334.0 881.0 C 336.3 883.8, 338.3 887.2, 341.0 889.0 C 343.7 890.8, 347.2 890.3, 350.0 892.0 C 352.8 893.7, 355.5 896.3, 358.0 899.0 C 360.5 901.7, 362.3 905.2, 365.0 908.0 C 367.7 910.8, 371.7 915.2, 374.0 916.0 C 376.3 916.8, 379.0 915.0, 379.0 913.0 C 379.0 911.0, 375.7 907.0, 374.0 904.0 C 372.3 901.0, 369.8 898.0, 369.0 895.0 C 368.2 892.0, 369.0 889.0, 369.0 886.0 C 369.0 883.0, 368.8 879.7, 369.0 877.0 C 369.2 874.3, 371.3 870.7, 370.0 870.0 C 368.7 869.3, 363.5 873.7, 361.0 873.0 C 358.5 872.3, 356.2 868.7, 355.0 866.0 C 353.8 863.3, 354.5 860.0, 354.0 857.0 C 353.5 854.0, 352.8 851.0, 352.0 848.0 C 351.2 845.0, 350.2 842.0, 349.0 839.0 C 347.8 836.0, 346.2 833.0, 345.0 830.0 C 343.8 827.0, 342.8 824.0, 342.0 821.0 C 341.2 818.0, 340.7 815.0, 340.0 812.0 C 339.3 809.0, 338.5 806.0, 338.0 803.0 C 337.5 800.0, 337.5 797.0, 337.0 794.0 C 336.5 791.0, 335.7 788.0, 335.0 785.0 C 334.3 782.0, 333.7 779.0, 333.0 776.0 C 332.3 773.0, 331.7 770.0, 331.0 767.0 C 330.3 764.0, 329.7 761.0, 329.0 758.0 C 328.3 755.0, 327.8 752.0, 327.0 749.0 C 326.2 746.0, 325.0 743.0, 324.0 740.0 C 323.0 737.0, 321.7 734.0, 321.0 731.0 C 320.3 728.0, 320.2 725.0, 320.0 722.0 C 319.8 719.0, 319.3 716.0, 320.0 713.0 C 320.7 710.0, 322.8 706.3, 324.0 704.0 C 325.2 701.7, 327.2 701.3, 327.0 699.0 C 326.8 696.7, 324.2 693.0, 323.0 690.0 C 321.8 687.0, 320.7 684.0, 320.0 681.0 C 319.3 678.0, 319.3 675.0, 319.0 672.0 C 318.7 669.0, 318.3 666.0, 318.0 663.0 C 317.7 660.0, 317.2 657.0, 317.0 654.0 C 316.8 651.0, 317.0 648.0, 317.0 645.0 C 317.0 642.0, 317.0 639.0, 317.0 636.0 C 317.0 633.0, 317.2 630.0, 317.0 627.0 C 316.8 624.0, 316.2 621.0, 316.0 618.0 C 315.8 615.0, 316.2 612.0, 316.0 609.0 C 315.8 606.0, 315.3 603.0, 315.0 600.0 C 314.7 597.0, 314.2 594.0, 314.0 591.0 C 313.8 588.0, 314.0 585.0, 314.0 582.0 C 314.0 579.0, 313.5 576.0, 314.0 573.0 C 314.5 570.0, 315.0 566.8, 317.0 564.0 C 319.0 561.2, 323.0 558.7, 326.0 556.0 C 329.0 553.3, 332.0 550.0, 335.0 548.0 C 338.0 546.0, 341.0 545.2, 344.0 544.0 C 347.0 542.8, 350.0 542.2, 353.0 541.0 C 356.0 539.8, 359.2 539.0, 362.0 537.0 C 364.8 535.0, 367.2 530.8, 370.0 529.0 C 372.8 527.2, 376.0 526.5, 379.0 526.0 C 382.0 525.5, 385.0 526.0, 388.0 526.0 C 391.0 526.0, 394.0 526.2, 397.0 526.0 C 400.0 525.8, 404.0 526.5, 406.0 525.0 C 408.0 523.5, 408.8 519.8, 409.0 517.0 C 409.2 514.2, 406.8 511.0, 407.0 508.0 C 407.2 505.0, 408.0 501.5, 410.0 499.0 C 412.0 496.5, 416.0 495.5, 419.0 493.0 C 422.0 490.5, 425.2 486.8, 428.0 484.0 C 430.8 481.2, 433.2 478.8, 436.0 476.0 C 438.8 473.2, 442.5 470.0, 445.0 467.0 C 447.5 464.0, 448.8 460.8, 451.0 458.0 C 453.2 455.2, 456.0 452.8, 458.0 450.0 C 460.0 447.2, 461.3 444.0, 463.0 441.0 C 464.7 438.0, 466.0 435.0, 468.0 432.0 C 470.0 429.0, 473.3 426.0, 475.0 423.0 C 476.7 420.0, 477.3 417.0, 478.0 414.0 C 478.7 411.0, 480.3 406.3, 479.0 405.0 C 477.7 403.7, 473.0 404.7, 470.0 406.0 C 467.0 407.3, 464.0 411.5, 461.0 413.0 C 458.0 414.5, 455.0 414.7, 452.0 415.0 C 449.0 415.3, 446.0 415.0, 443.0 415.0 C 440.0 415.0, 437.0 415.2, 434.0 415.0 C 431.0 414.8, 428.0 415.0, 425.0 414.0 C 422.0 413.0, 419.0 410.8, 416.0 409.0 C 413.0 407.2, 410.0 405.3, 407.0 403.0 C 404.0 400.7, 400.8 397.8, 398.0 395.0 C 395.2 392.2, 392.2 389.0, 390.0 386.0 C 387.8 383.0, 386.0 380.0, 385.0 377.0 C 384.0 374.0, 384.7 371.0, 384.0 368.0 C 383.3 365.0, 382.8 361.5, 381.0 359.0 C 379.2 356.5, 375.5 354.2, 373.0 353.0 C 370.5 351.8, 368.7 351.7, 366.0 352.0 Z M 276.0 209.0 C 274.5 209.3, 274.5 213.7, 274.0 216.0 C 273.5 218.3, 273.2 220.7, 273.0 223.0 C 272.8 225.3, 272.7 227.7, 273.0 230.0 C 273.3 232.3, 274.3 234.7, 275.0 237.0 C 275.7 239.3, 276.0 241.7, 277.0 244.0 C 278.0 246.3, 279.8 248.7, 281.0 251.0 C 282.2 253.3, 282.8 255.7, 284.0 258.0 C 285.2 260.3, 287.2 262.7, 288.0 265.0 C 288.8 267.3, 288.2 269.7, 289.0 272.0 C 289.8 274.3, 291.2 276.8, 293.0 279.0 C 294.8 281.2, 297.7 282.8, 300.0 285.0 C 302.3 287.2, 304.8 289.7, 307.0 292.0 C 309.2 294.3, 310.8 297.3, 313.0 299.0 C 315.2 300.7, 317.7 301.0, 320.0 302.0 C 322.3 303.0, 324.7 303.8, 327.0 305.0 C 329.3 306.2, 331.7 307.5, 334.0 309.0 C 336.3 310.5, 338.7 312.8, 341.0 314.0 C 343.3 315.2, 345.7 315.5, 348.0 316.0 C 350.3 316.5, 352.7 316.8, 355.0 317.0 C 357.3 317.2, 359.7 317.0, 362.0 317.0 C 364.3 317.0, 366.7 317.3, 369.0 317.0 C 371.3 316.7, 373.7 315.5, 376.0 315.0 C 378.3 314.5, 380.7 314.7, 383.0 314.0 C 385.3 313.3, 387.7 312.3, 390.0 311.0 C 392.3 309.7, 394.7 307.3, 397.0 306.0 C 399.3 304.7, 401.7 303.7, 404.0 303.0 C 406.3 302.3, 408.7 302.2, 411.0 302.0 C 413.3 301.8, 415.7 302.2, 418.0 302.0 C 420.3 301.8, 422.7 301.2, 425.0 301.0 C 427.3 300.8, 429.7 301.2, 432.0 301.0 C 434.3 300.8, 436.7 300.2, 439.0 300.0 C 441.3 299.8, 443.7 300.0, 446.0 300.0 C 448.3 300.0, 450.7 299.8, 453.0 300.0 C 455.3 300.2, 457.7 300.7, 460.0 301.0 C 462.3 301.3, 464.7 301.5, 467.0 302.0 C 469.3 302.5, 471.8 302.7, 474.0 304.0 C 476.2 305.3, 477.8 308.0, 480.0 310.0 C 482.2 312.0, 484.7 314.0, 487.0 316.0 C 489.3 318.0, 492.3 319.8, 494.0 322.0 C 495.7 324.2, 496.3 326.7, 497.0 329.0 C 497.7 331.3, 497.5 333.7, 498.0 336.0 C 498.5 338.3, 498.8 341.2, 500.0 343.0 C 501.2 344.8, 503.5 347.5, 505.0 347.0 C 506.5 346.5, 508.2 342.3, 509.0 340.0 C 509.8 337.7, 509.7 335.3, 510.0 333.0 C 510.3 330.7, 510.2 328.3, 511.0 326.0 C 511.8 323.7, 513.2 321.2, 515.0 319.0 C 516.8 316.8, 519.8 315.0, 522.0 313.0 C 524.2 311.0, 525.8 308.7, 528.0 307.0 C 530.2 305.3, 532.7 303.8, 535.0 303.0 C 537.3 302.2, 539.7 302.5, 542.0 302.0 C 544.3 301.5, 546.7 300.3, 549.0 300.0 C 551.3 299.7, 553.7 300.0, 556.0 300.0 C 558.3 300.0, 560.7 300.0, 563.0 300.0 C 565.3 300.0, 567.7 299.8, 570.0 300.0 C 572.3 300.2, 574.7 300.7, 577.0 301.0 C 579.3 301.3, 581.7 301.8, 584.0 302.0 C 586.3 302.2, 588.7 302.0, 591.0 302.0 C 593.3 302.0, 595.7 301.7, 598.0 302.0 C 600.3 302.3, 602.7 303.2, 605.0 304.0 C 607.3 304.8, 609.7 305.7, 612.0 307.0 C 614.3 308.3, 616.7 310.7, 619.0 312.0 C 621.3 313.3, 623.7 314.3, 626.0 315.0 C 628.3 315.7, 630.7 315.7, 633.0 316.0 C 635.3 316.3, 637.7 316.8, 640.0 317.0 C 642.3 317.2, 644.7 317.0, 647.0 317.0 C 649.3 317.0, 651.7 317.3, 654.0 317.0 C 656.3 316.7, 658.7 315.8, 661.0 315.0 C 663.3 314.2, 665.7 313.3, 668.0 312.0 C 670.3 310.7, 672.7 308.3, 675.0 307.0 C 677.3 305.7, 679.7 304.8, 682.0 304.0 C 684.3 303.2, 686.7 303.2, 689.0 302.0 C 691.3 300.8, 693.8 299.0, 696.0 297.0 C 698.2 295.0, 700.0 292.3, 702.0 290.0 C 704.0 287.7, 705.8 285.3, 708.0 283.0 C 710.2 280.7, 713.3 278.3, 715.0 276.0 C 716.7 273.7, 717.2 271.3, 718.0 269.0 C 718.8 266.7, 719.0 264.3, 720.0 262.0 C 721.0 259.7, 722.7 257.3, 724.0 255.0 C 725.3 252.7, 726.7 250.3, 728.0 248.0 C 729.3 245.7, 731.2 243.3, 732.0 241.0 C 732.8 238.7, 732.7 236.3, 733.0 234.0 C 733.3 231.7, 733.8 229.3, 734.0 227.0 C 734.2 224.7, 734.3 222.3, 734.0 220.0 C 733.7 217.7, 733.0 214.5, 732.0 213.0 C 731.0 211.5, 729.2 210.2, 728.0 211.0 C 726.8 211.8, 725.5 215.7, 725.0 218.0 C 724.5 220.3, 724.8 222.7, 725.0 225.0 C 725.2 227.3, 726.3 229.7, 726.0 232.0 C 725.7 234.3, 724.3 236.7, 723.0 239.0 C 721.7 241.3, 719.5 243.7, 718.0 246.0 C 716.5 248.3, 715.0 250.7, 714.0 253.0 C 713.0 255.3, 712.8 257.7, 712.0 260.0 C 711.2 262.3, 710.2 264.7, 709.0 267.0 C 707.8 269.3, 706.8 271.8, 705.0 274.0 C 703.2 276.2, 700.2 278.0, 698.0 280.0 C 695.8 282.0, 694.0 284.0, 692.0 286.0 C 690.0 288.0, 688.2 290.2, 686.0 292.0 C 683.8 293.8, 681.3 295.8, 679.0 297.0 C 676.7 298.2, 674.3 298.5, 672.0 299.0 C 669.7 299.5, 667.3 299.5, 665.0 300.0 C 662.7 300.5, 660.3 301.3, 658.0 302.0 C 655.7 302.7, 653.3 303.7, 651.0 304.0 C 648.7 304.3, 646.3 304.3, 644.0 304.0 C 641.7 303.7, 639.3 302.5, 637.0 302.0 C 634.7 301.5, 632.3 301.3, 630.0 301.0 C 627.7 300.7, 625.3 300.5, 623.0 300.0 C 620.7 299.5, 618.3 298.5, 616.0 298.0 C 613.7 297.5, 611.3 297.5, 609.0 297.0 C 606.7 296.5, 604.3 295.5, 602.0 295.0 C 599.7 294.5, 597.3 294.5, 595.0 294.0 C 592.7 293.5, 590.3 293.0, 588.0 292.0 C 585.7 291.0, 583.3 289.0, 581.0 288.0 C 578.7 287.0, 576.3 286.3, 574.0 286.0 C 571.7 285.7, 569.3 286.0, 567.0 286.0 C 564.7 286.0, 562.3 286.0, 560.0 286.0 C 557.7 286.0, 555.3 285.3, 553.0 286.0 C 550.7 286.7, 548.3 288.7, 546.0 290.0 C 543.7 291.3, 541.3 292.8, 539.0 294.0 C 536.7 295.2, 534.3 296.0, 532.0 297.0 C 529.7 298.0, 527.2 298.7, 525.0 300.0 C 522.8 301.3, 521.2 303.0, 519.0 305.0 C 516.8 307.0, 514.0 309.7, 512.0 312.0 C 510.0 314.3, 508.7 317.2, 507.0 319.0 C 505.3 320.8, 503.7 323.5, 502.0 323.0 C 500.3 322.5, 498.8 318.3, 497.0 316.0 C 495.2 313.7, 492.8 311.3, 491.0 309.0 C 489.2 306.7, 487.8 303.8, 486.0 302.0 C 484.2 300.2, 482.2 299.2, 480.0 298.0 C 477.8 296.8, 475.3 296.0, 473.0 295.0 C 470.7 294.0, 468.3 293.2, 466.0 292.0 C 463.7 290.8, 461.3 289.0, 459.0 288.0 C 456.7 287.0, 454.3 286.5, 452.0 286.0 C 449.7 285.5, 447.3 285.2, 445.0 285.0 C 442.7 284.8, 440.3 284.7, 438.0 285.0 C 435.7 285.3, 433.3 286.0, 431.0 287.0 C 428.7 288.0, 426.3 289.8, 424.0 291.0 C 421.7 292.2, 419.3 293.2, 417.0 294.0 C 414.7 294.8, 412.3 295.5, 410.0 296.0 C 407.7 296.5, 405.3 296.7, 403.0 297.0 C 400.7 297.3, 398.3 297.8, 396.0 298.0 C 393.7 298.2, 391.3 297.7, 389.0 298.0 C 386.7 298.3, 384.3 299.5, 382.0 300.0 C 379.7 300.5, 377.3 300.5, 375.0 301.0 C 372.7 301.5, 370.3 302.5, 368.0 303.0 C 365.7 303.5, 363.3 303.8, 361.0 304.0 C 358.7 304.2, 356.3 304.2, 354.0 304.0 C 351.7 303.8, 349.3 303.7, 347.0 303.0 C 344.7 302.3, 342.3 300.7, 340.0 300.0 C 337.7 299.3, 335.3 299.8, 333.0 299.0 C 330.7 298.2, 328.3 296.5, 326.0 295.0 C 323.7 293.5, 321.2 292.0, 319.0 290.0 C 316.8 288.0, 315.2 285.2, 313.0 283.0 C 310.8 280.8, 308.3 279.2, 306.0 277.0 C 303.7 274.8, 300.8 272.3, 299.0 270.0 C 297.2 267.7, 296.2 265.3, 295.0 263.0 C 293.8 260.7, 292.5 258.3, 292.0 256.0 C 291.5 253.7, 292.7 251.3, 292.0 249.0 C 291.3 246.7, 289.5 244.3, 288.0 242.0 C 286.5 239.7, 284.0 237.3, 283.0 235.0 C 282.0 232.7, 281.8 230.3, 282.0 228.0 C 282.2 225.7, 283.8 223.3, 284.0 221.0 C 284.2 218.7, 284.3 216.0, 283.0 214.0 C 281.7 212.0, 277.5 208.7, 276.0 209.0 Z" />
    <path fill="#d6c700" stroke="#d6c700" stroke-width="8" stroke-linejoin="round" fill-rule="evenodd" d="M 374.0 869.0 C 373.3 869.5, 371.7 871.0, 371.0 872.0 C 370.3 873.0, 370.2 874.0, 370.0 875.0 C 369.8 876.0, 370.0 877.0, 370.0 878.0 C 370.0 879.0, 370.0 880.0, 370.0 881.0 C 370.0 882.0, 370.0 883.0, 370.0 884.0 C 370.0 885.0, 370.0 886.0, 370.0 887.0 C 370.0 888.0, 370.0 889.0, 370.0 890.0 C 370.0 891.0, 370.0 892.0, 370.0 893.0 C 370.0 894.0, 369.8 895.0, 370.0 896.0 C 370.2 897.0, 370.5 898.0, 371.0 899.0 C 371.5 900.0, 372.2 901.0, 373.0 902.0 C 373.8 903.0, 375.2 904.0, 376.0 905.0 C 376.8 906.0, 377.5 907.0, 378.0 908.0 C 378.5 909.0, 378.7 910.0, 379.0 911.0 C 379.3 912.0, 379.8 913.0, 380.0 914.0 C 380.2 915.0, 380.0 916.0, 380.0 917.0 C 380.0 918.0, 379.8 919.0, 380.0 920.0 C 380.2 921.0, 380.3 922.2, 381.0 923.0 C 381.7 923.8, 383.0 924.3, 384.0 925.0 C 385.0 925.7, 386.0 926.3, 387.0 927.0 C 388.0 927.7, 389.0 928.3, 390.0 929.0 C 391.0 929.7, 392.0 930.5, 393.0 931.0 C 394.0 931.5, 395.0 931.5, 396.0 932.0 C 397.0 932.5, 398.0 933.2, 399.0 934.0 C 400.0 934.8, 401.0 936.2, 402.0 937.0 C 403.0 937.8, 404.0 938.3, 405.0 939.0 C 406.0 939.7, 407.0 940.5, 408.0 941.0 C 409.0 941.5, 410.0 941.7, 411.0 942.0 C 412.0 942.3, 413.0 942.8, 414.0 943.0 C 415.0 943.2, 416.0 942.8, 417.0 943.0 C 418.0 943.2, 419.0 943.7, 420.0 944.0 C 421.0 944.3, 422.0 944.7, 423.0 945.0 C 424.0 945.3, 425.0 945.8, 426.0 946.0 C 427.0 946.2, 428.0 945.8, 429.0 946.0 C 430.0 946.2, 431.0 946.7, 432.0 947.0 C 433.0 947.3, 434.0 947.7, 435.0 948.0 C 436.0 948.3, 437.0 948.7, 438.0 949.0 C 439.0 949.3, 440.0 949.7, 441.0 950.0 C 442.0 950.3, 443.0 950.8, 444.0 951.0 C 445.0 951.2, 446.0 950.8, 447.0 951.0 C 448.0 951.2, 449.0 951.7, 450.0 952.0 C 451.0 952.3, 452.0 952.5, 453.0 953.0 C 454.0 953.5, 455.0 954.7, 456.0 955.0 C 457.0 955.3, 458.0 954.8, 459.0 955.0 C 460.0 955.2, 461.0 955.7, 462.0 956.0 C 463.0 956.3, 464.0 956.7, 465.0 957.0 C 466.0 957.3, 467.0 957.8, 468.0 958.0 C 469.0 958.2, 470.0 957.8, 471.0 958.0 C 472.0 958.2, 473.0 958.8, 474.0 959.0 C 475.0 959.2, 476.0 959.0, 477.0 959.0 C 478.0 959.0, 479.0 959.0, 480.0 959.0 C 481.0 959.0, 482.0 959.0, 483.0 959.0 C 484.0 959.0, 485.0 959.0, 486.0 959.0 C 487.0 959.0, 488.0 959.0, 489.0 959.0 C 490.0 959.0, 491.0 959.0, 492.0 959.0 C 493.0 959.0, 494.0 959.0, 495.0 959.0 C 496.0 959.0, 497.0 959.0, 498.0 959.0 C 499.0 959.0, 500.0 959.0, 501.0 959.0 C 502.0 959.0, 503.0 959.0, 504.0 959.0 C 505.0 959.0, 506.0 959.0, 507.0 959.0 C 508.0 959.0, 509.0 959.0, 510.0 959.0 C 511.0 959.0, 512.0 959.0, 513.0 959.0 C 514.0 959.0, 515.0 959.0, 516.0 959.0 C 517.0 959.0, 518.0 959.0, 519.0 959.0 C 520.0 959.0, 521.0 959.0, 522.0 959.0 C 523.0 959.0, 524.0 959.0, 525.0 959.0 C 526.0 959.0, 527.0 959.0, 528.0 959.0 C 529.0 959.0, 530.0 959.2, 531.0 959.0 C 532.0 958.8, 533.0 958.3, 534.0 958.0 C 535.0 957.7, 536.0 957.2, 537.0 957.0 C 538.0 956.8, 539.0 957.2, 540.0 957.0 C 541.0 956.8, 542.0 956.2, 543.0 956.0 C 544.0 955.8, 545.0 956.2, 546.0 956.0 C 547.0 955.8, 548.0 955.3, 549.0 955.0 C 550.0 954.7, 551.0 954.3, 552.0 954.0 C 553.0 953.7, 554.0 953.3, 555.0 953.0 C 556.0 952.7, 557.0 952.3, 558.0 952.0 C 559.0 951.7, 560.0 951.3, 561.0 951.0 C 562.0 950.7, 563.0 950.3, 564.0 950.0 C 565.0 949.7, 566.0 949.3, 567.0 949.0 C 568.0 948.7, 569.0 948.3, 570.0 948.0 C 571.0 947.7, 572.0 947.3, 573.0 947.0 C 574.0 946.7, 575.0 946.3, 576.0 946.0 C 577.0 945.7, 578.0 945.2, 579.0 945.0 C 580.0 944.8, 581.0 945.2, 582.0 945.0 C 583.0 944.8, 584.0 944.2, 585.0 944.0 C 586.0 943.8, 587.0 944.2, 588.0 944.0 C 589.0 943.8, 590.0 943.2, 591.0 943.0 C 592.0 942.8, 593.0 943.0, 594.0 943.0 C 595.0 943.0, 596.0 943.2, 597.0 943.0 C 598.0 942.8, 599.0 942.5, 600.0 942.0 C 601.0 941.5, 602.0 940.7, 603.0 940.0 C 604.0 939.3, 605.0 938.7, 606.0 938.0 C 607.0 937.3, 608.0 936.8, 609.0 936.0 C 610.0 935.2, 611.0 933.8, 612.0 933.0 C 613.0 932.2, 614.0 931.7, 615.0 931.0 C 616.0 930.3, 617.0 929.7, 618.0 929.0 C 619.0 928.3, 620.0 927.5, 621.0 927.0 C 622.0 926.5, 623.0 926.5, 624.0 926.0 C 625.0 925.5, 626.0 924.8, 627.0 924.0 C 628.0 923.2, 629.2 921.8, 630.0 921.0 C 630.8 920.2, 631.2 919.8, 632.0 919.0 C 632.8 918.2, 634.0 917.0, 635.0 916.0 C 636.0 915.0, 637.3 914.0, 638.0 913.0 C 638.7 912.0, 638.8 911.0, 639.0 910.0 C 639.2 909.0, 639.0 908.0, 639.0 907.0 C 639.0 906.0, 639.0 905.0, 639.0 904.0 C 639.0 903.0, 639.0 902.0, 639.0 901.0 C 639.0 900.0, 639.0 899.0, 639.0 898.0 C 639.0 897.0, 639.0 896.0, 639.0 895.0 C 639.0 894.0, 639.0 893.0, 639.0 892.0 C 639.0 891.0, 639.0 890.0, 639.0 889.0 C 639.0 888.0, 639.0 887.0, 639.0 886.0 C 639.0 885.0, 639.0 884.0, 639.0 883.0 C 639.0 882.0, 639.0 881.0, 639.0 880.0 C 639.0 879.0, 639.2 878.0, 639.0 877.0 C 638.8 876.0, 638.3 875.0, 638.0 874.0 C 637.7 873.0, 637.7 871.8, 637.0 871.0 C 636.3 870.2, 635.0 869.3, 634.0 869.0 C 633.0 868.7, 632.0 869.0, 631.0 869.0 C 630.0 869.0, 629.0 869.0, 628.0 869.0 C 627.0 869.0, 626.0 868.8, 625.0 869.0 C 624.0 869.2, 623.0 869.7, 622.0 870.0 C 621.0 870.3, 620.0 870.5, 619.0 871.0 C 618.0 871.5, 617.0 872.3, 616.0 873.0 C 615.0 873.7, 614.0 874.3, 613.0 875.0 C 612.0 875.7, 611.0 876.2, 610.0 877.0 C 609.0 877.8, 608.0 879.0, 607.0 880.0 C 606.0 881.0, 604.8 882.0, 604.0 883.0 C 603.2 884.0, 602.8 885.0, 602.0 886.0 C 601.2 887.0, 600.0 888.2, 599.0 889.0 C 598.0 889.8, 597.0 890.5, 596.0 891.0 C 595.0 891.5, 594.0 891.7, 593.0 892.0 C 592.0 892.3, 591.0 892.8, 590.0 893.0 C 589.0 893.2, 588.0 892.8, 587.0 893.0 C 586.0 893.2, 585.0 893.8, 584.0 894.0 C 583.0 894.2, 582.0 893.8, 581.0 894.0 C 580.0 894.2, 579.0 894.7, 578.0 895.0 C 577.0 895.3, 576.0 895.7, 575.0 896.0 C 574.0 896.3, 573.0 896.7, 572.0 897.0 C 571.0 897.3, 570.0 897.7, 569.0 898.0 C 568.0 898.3, 567.0 898.5, 566.0 899.0 C 565.0 899.5, 564.0 900.5, 563.0 901.0 C 562.0 901.5, 561.0 901.5, 560.0 902.0 C 559.0 902.5, 558.0 903.5, 557.0 904.0 C 556.0 904.5, 555.0 904.7, 554.0 905.0 C 553.0 905.3, 552.0 905.8, 551.0 906.0 C 550.0 906.2, 549.0 905.8, 548.0 906.0 C 547.0 906.2, 546.0 906.7, 545.0 907.0 C 544.0 907.3, 543.0 907.8, 542.0 908.0 C 541.0 908.2, 540.0 908.0, 539.0 908.0 C 538.0 908.0, 537.0 908.0, 536.0 908.0 C 535.0 908.0, 534.0 908.0, 533.0 908.0 C 532.0 908.0, 531.0 907.8, 530.0 908.0 C 529.0 908.2, 528.0 908.8, 527.0 909.0 C 526.0 909.2, 525.0 909.0, 524.0 909.0 C 523.0 909.0, 522.0 908.8, 521.0 909.0 C 520.0 909.2, 519.0 909.8, 518.0 910.0 C 517.0 910.2, 516.0 910.0, 515.0 910.0 C 514.0 910.0, 513.0 910.0, 512.0 910.0 C 511.0 910.0, 510.0 910.0, 509.0 910.0 C 508.0 910.0, 507.0 910.0, 506.0 910.0 C 505.0 910.0, 504.0 910.2, 503.0 910.0 C 502.0 909.8, 501.0 909.2, 500.0 909.0 C 499.0 908.8, 498.0 909.0, 497.0 909.0 C 496.0 909.0, 495.0 909.0, 494.0 909.0 C 493.0 909.0, 492.0 909.0, 491.0 909.0 C 490.0 909.0, 489.0 909.0, 488.0 909.0 C 487.0 909.0, 486.0 909.0, 485.0 909.0 C 484.0 909.0, 483.0 909.0, 482.0 909.0 C 481.0 909.0, 480.0 909.0, 479.0 909.0 C 478.0 909.0, 477.0 909.2, 476.0 909.0 C 475.0 908.8, 474.0 908.2, 473.0 908.0 C 472.0 907.8, 471.0 908.0, 470.0 908.0 C 469.0 908.0, 468.0 908.0, 467.0 908.0 C 466.0 908.0, 465.0 908.2, 464.0 908.0 C 463.0 907.8, 462.0 907.3, 461.0 907.0 C 460.0 906.7, 459.0 906.3, 458.0 906.0 C 457.0 905.7, 456.0 905.3, 455.0 905.0 C 454.0 904.7, 453.0 904.2, 452.0 904.0 C 451.0 903.8, 450.0 904.2, 449.0 904.0 C 448.0 903.8, 447.0 903.5, 446.0 903.0 C 445.0 902.5, 444.0 901.7, 443.0 901.0 C 442.0 900.3, 441.0 899.7, 440.0 899.0 C 439.0 898.3, 438.0 897.5, 437.0 897.0 C 436.0 896.5, 435.0 896.3, 434.0 896.0 C 433.0 895.7, 432.0 895.3, 431.0 895.0 C 430.0 894.7, 429.0 894.3, 428.0 894.0 C 427.0 893.7, 426.0 893.2, 425.0 893.0 C 424.0 892.8, 423.0 893.2, 422.0 893.0 C 421.0 892.8, 420.0 892.2, 419.0 892.0 C 418.0 891.8, 417.0 892.2, 416.0 892.0 C 415.0 891.8, 414.0 891.5, 413.0 891.0 C 412.0 890.5, 411.0 889.8, 410.0 889.0 C 409.0 888.2, 407.8 887.0, 407.0 886.0 C 406.2 885.0, 405.8 884.0, 405.0 883.0 C 404.2 882.0, 403.0 881.0, 402.0 880.0 C 401.0 879.0, 400.0 878.0, 399.0 877.0 C 398.0 876.0, 397.0 874.8, 396.0 874.0 C 395.0 873.2, 394.0 872.5, 393.0 872.0 C 392.0 871.5, 391.0 871.5, 390.0 871.0 C 389.0 870.5, 388.0 869.3, 387.0 869.0 C 386.0 868.7, 385.0 869.0, 384.0 869.0 C 383.0 869.0, 382.0 869.0, 381.0 869.0 C 380.0 869.0, 379.0 869.0, 378.0 869.0 C 377.0 869.0, 375.7 869.0, 375.0 869.0 C 374.3 869.0, 374.7 868.5, 374.0 869.0 Z M 320.0 669.0 C 319.5 669.7, 319.8 672.3, 320.0 674.0 C 320.2 675.7, 320.7 677.3, 321.0 679.0 C 321.3 680.7, 321.5 682.3, 322.0 684.0 C 322.5 685.7, 323.5 687.3, 324.0 689.0 C 324.5 690.7, 324.3 692.3, 325.0 694.0 C 325.7 695.7, 327.3 697.3, 328.0 699.0 C 328.7 700.7, 328.5 702.3, 329.0 704.0 C 329.5 705.7, 330.5 707.3, 331.0 709.0 C 331.5 710.7, 331.5 712.3, 332.0 714.0 C 332.5 715.7, 333.3 717.3, 334.0 719.0 C 334.7 720.7, 335.0 722.3, 336.0 724.0 C 337.0 725.7, 338.5 727.3, 340.0 729.0 C 341.5 730.7, 343.7 732.3, 345.0 734.0 C 346.3 735.7, 347.0 737.3, 348.0 739.0 C 349.0 740.7, 349.8 742.5, 351.0 744.0 C 352.2 745.5, 353.5 746.5, 355.0 748.0 C 356.5 749.5, 358.3 751.5, 360.0 753.0 C 361.7 754.5, 363.5 755.5, 365.0 757.0 C 366.5 758.5, 367.5 760.3, 369.0 762.0 C 370.5 763.7, 372.3 765.5, 374.0 767.0 C 375.7 768.5, 377.3 769.8, 379.0 771.0 C 380.7 772.2, 382.3 772.7, 384.0 774.0 C 385.7 775.3, 387.3 777.5, 389.0 779.0 C 390.7 780.5, 392.3 782.0, 394.0 783.0 C 395.7 784.0, 397.3 784.3, 399.0 785.0 C 400.7 785.7, 402.3 785.8, 404.0 787.0 C 405.7 788.2, 407.3 790.5, 409.0 792.0 C 410.7 793.5, 412.3 794.7, 414.0 796.0 C 415.7 797.3, 417.3 798.8, 419.0 800.0 C 420.7 801.2, 422.3 802.2, 424.0 803.0 C 425.7 803.8, 427.3 804.2, 429.0 805.0 C 430.7 805.8, 432.3 806.7, 434.0 808.0 C 435.7 809.3, 437.3 811.7, 439.0 813.0 C 440.7 814.3, 442.3 815.2, 444.0 816.0 C 445.7 816.8, 447.3 817.5, 449.0 818.0 C 450.7 818.5, 452.3 818.5, 454.0 819.0 C 455.7 819.5, 457.3 820.2, 459.0 821.0 C 460.7 821.8, 462.3 822.8, 464.0 824.0 C 465.7 825.2, 467.3 826.7, 469.0 828.0 C 470.7 829.3, 472.3 831.2, 474.0 832.0 C 475.7 832.8, 477.3 832.5, 479.0 833.0 C 480.7 833.5, 482.3 834.7, 484.0 835.0 C 485.7 835.3, 487.3 835.0, 489.0 835.0 C 490.7 835.0, 492.3 835.0, 494.0 835.0 C 495.7 835.0, 497.3 835.0, 499.0 835.0 C 500.7 835.0, 502.3 835.0, 504.0 835.0 C 505.7 835.0, 507.3 835.0, 509.0 835.0 C 510.7 835.0, 512.3 835.0, 514.0 835.0 C 515.7 835.0, 517.3 835.2, 519.0 835.0 C 520.7 834.8, 522.3 834.2, 524.0 834.0 C 525.7 833.8, 527.3 834.3, 529.0 834.0 C 530.7 833.7, 532.3 833.0, 534.0 832.0 C 535.7 831.0, 537.3 829.3, 539.0 828.0 C 540.7 826.7, 542.3 825.2, 544.0 824.0 C 545.7 822.8, 547.3 821.8, 549.0 821.0 C 550.7 820.2, 552.3 819.5, 554.0 819.0 C 555.7 818.5, 557.3 818.5, 559.0 818.0 C 560.7 817.5, 562.3 817.0, 564.0 816.0 C 565.7 815.0, 567.3 813.3, 569.0 812.0 C 570.7 810.7, 572.3 809.0, 574.0 808.0 C 575.7 807.0, 577.3 806.8, 579.0 806.0 C 580.7 805.2, 582.3 803.8, 584.0 803.0 C 585.7 802.2, 587.3 802.0, 589.0 801.0 C 590.7 800.0, 592.3 798.5, 594.0 797.0 C 595.7 795.5, 597.3 793.5, 599.0 792.0 C 600.7 790.5, 602.3 789.0, 604.0 788.0 C 605.7 787.0, 607.3 786.8, 609.0 786.0 C 610.7 785.2, 612.3 784.2, 614.0 783.0 C 615.7 781.8, 617.3 780.3, 619.0 779.0 C 620.7 777.7, 622.3 776.3, 624.0 775.0 C 625.7 773.7, 627.3 772.3, 629.0 771.0 C 630.7 769.7, 632.3 768.5, 634.0 767.0 C 635.7 765.5, 637.5 763.7, 639.0 762.0 C 640.5 760.3, 641.5 758.5, 643.0 757.0 C 644.5 755.5, 646.3 754.5, 648.0 753.0 C 649.7 751.5, 651.5 749.7, 653.0 748.0 C 654.5 746.3, 656.0 744.7, 657.0 743.0 C 658.0 741.3, 658.0 739.7, 659.0 738.0 C 660.0 736.3, 661.5 734.7, 663.0 733.0 C 664.5 731.3, 666.5 729.5, 668.0 728.0 C 669.5 726.5, 671.0 725.5, 672.0 724.0 C 673.0 722.5, 673.3 720.7, 674.0 719.0 C 674.7 717.3, 675.5 715.7, 676.0 714.0 C 676.5 712.3, 676.7 710.7, 677.0 709.0 C 677.3 707.3, 677.7 705.7, 678.0 704.0 C 678.3 702.3, 678.3 700.7, 679.0 699.0 C 679.7 697.3, 681.0 695.7, 682.0 694.0 C 683.0 692.3, 684.3 690.7, 685.0 689.0 C 685.7 687.3, 685.7 685.7, 686.0 684.0 C 686.3 682.3, 686.7 680.7, 687.0 679.0 C 687.3 677.3, 688.3 674.8, 688.0 674.0 C 687.7 673.2, 685.7 673.2, 685.0 674.0 C 684.3 674.8, 684.5 677.3, 684.0 679.0 C 683.5 680.7, 683.0 682.3, 682.0 684.0 C 681.0 685.7, 679.2 687.3, 678.0 689.0 C 676.8 690.7, 676.0 692.3, 675.0 694.0 C 674.0 695.7, 672.7 697.3, 672.0 699.0 C 671.3 700.7, 671.2 702.3, 671.0 704.0 C 670.8 705.7, 671.2 707.3, 671.0 709.0 C 670.8 710.7, 670.7 712.3, 670.0 714.0 C 669.3 715.7, 668.2 717.3, 667.0 719.0 C 665.8 720.7, 664.5 722.3, 663.0 724.0 C 661.5 725.7, 659.5 727.3, 658.0 729.0 C 656.5 730.7, 654.8 732.3, 654.0 734.0 C 653.2 735.7, 653.7 737.3, 653.0 739.0 C 652.3 740.7, 651.3 742.3, 650.0 744.0 C 648.7 745.7, 646.7 747.7, 645.0 749.0 C 643.3 750.3, 641.5 750.8, 640.0 752.0 C 638.5 753.2, 637.3 754.5, 636.0 756.0 C 634.7 757.5, 633.5 759.5, 632.0 761.0 C 630.5 762.5, 628.7 764.0, 627.0 765.0 C 625.3 766.0, 623.7 766.0, 622.0 767.0 C 620.3 768.0, 618.5 769.5, 617.0 771.0 C 615.5 772.5, 614.5 774.5, 613.0 776.0 C 611.5 777.5, 609.7 779.0, 608.0 780.0 C 606.3 781.0, 604.7 781.2, 603.0 782.0 C 601.3 782.8, 599.7 783.7, 598.0 785.0 C 596.3 786.3, 594.5 788.3, 593.0 790.0 C 591.5 791.7, 590.5 793.5, 589.0 795.0 C 587.5 796.5, 585.7 798.2, 584.0 799.0 C 582.3 799.8, 580.7 799.7, 579.0 800.0 C 577.3 800.3, 575.7 800.5, 574.0 801.0 C 572.3 801.5, 570.7 801.8, 569.0 803.0 C 567.3 804.2, 565.7 806.5, 564.0 808.0 C 562.3 809.5, 560.7 810.8, 559.0 812.0 C 557.3 813.2, 555.7 814.2, 554.0 815.0 C 552.3 815.8, 550.7 816.7, 549.0 817.0 C 547.3 817.3, 545.7 816.7, 544.0 817.0 C 542.3 817.3, 540.7 818.0, 539.0 819.0 C 537.3 820.0, 535.5 821.7, 534.0 823.0 C 532.5 824.3, 531.5 825.8, 530.0 827.0 C 528.5 828.2, 526.7 829.3, 525.0 830.0 C 523.3 830.7, 521.7 830.8, 520.0 831.0 C 518.3 831.2, 516.7 831.0, 515.0 831.0 C 513.3 831.0, 511.7 831.0, 510.0 831.0 C 508.3 831.0, 506.7 831.0, 505.0 831.0 C 503.3 831.0, 501.7 831.0, 500.0 831.0 C 498.3 831.0, 496.7 831.0, 495.0 831.0 C 493.3 831.0, 491.7 831.0, 490.0 831.0 C 488.3 831.0, 486.7 831.3, 485.0 831.0 C 483.3 830.7, 481.7 830.0, 480.0 829.0 C 478.3 828.0, 476.5 826.5, 475.0 825.0 C 473.5 823.5, 472.5 821.3, 471.0 820.0 C 469.5 818.7, 467.7 817.7, 466.0 817.0 C 464.3 816.3, 462.7 816.3, 461.0 816.0 C 459.3 815.7, 457.7 815.3, 456.0 815.0 C 454.3 814.7, 452.7 814.7, 451.0 814.0 C 449.3 813.3, 447.5 812.2, 446.0 811.0 C 444.5 809.8, 443.5 808.5, 442.0 807.0 C 440.5 805.5, 438.7 803.3, 437.0 802.0 C 435.3 800.7, 433.7 799.5, 432.0 799.0 C 430.3 798.5, 428.7 799.5, 427.0 799.0 C 425.3 798.5, 423.5 797.2, 422.0 796.0 C 420.5 794.8, 419.5 793.5, 418.0 792.0 C 416.5 790.5, 414.7 788.3, 413.0 787.0 C 411.3 785.7, 409.7 785.0, 408.0 784.0 C 406.3 783.0, 404.7 781.8, 403.0 781.0 C 401.3 780.2, 399.7 780.2, 398.0 779.0 C 396.3 777.8, 394.7 775.7, 393.0 774.0 C 391.3 772.3, 389.7 770.5, 388.0 769.0 C 386.3 767.5, 384.7 766.2, 383.0 765.0 C 381.3 763.8, 379.5 763.2, 378.0 762.0 C 376.5 760.8, 375.2 759.5, 374.0 758.0 C 372.8 756.5, 372.3 754.5, 371.0 753.0 C 369.7 751.5, 367.7 750.3, 366.0 749.0 C 364.3 747.7, 362.7 746.5, 361.0 745.0 C 359.3 743.5, 357.2 741.7, 356.0 740.0 C 354.8 738.3, 355.0 736.7, 354.0 735.0 C 353.0 733.3, 351.5 731.7, 350.0 730.0 C 348.5 728.3, 346.5 726.7, 345.0 725.0 C 343.5 723.3, 342.3 721.7, 341.0 720.0 C 339.7 718.3, 338.0 716.7, 337.0 715.0 C 336.0 713.3, 335.3 711.7, 335.0 710.0 C 334.7 708.3, 335.2 706.7, 335.0 705.0 C 334.8 703.3, 334.5 701.7, 334.0 700.0 C 333.5 698.3, 332.7 696.7, 332.0 695.0 C 331.3 693.3, 330.8 691.7, 330.0 690.0 C 329.2 688.3, 327.8 686.7, 327.0 685.0 C 326.2 683.3, 325.7 681.7, 325.0 680.0 C 324.3 678.3, 323.3 676.7, 323.0 675.0 C 322.7 673.3, 323.5 671.0, 323.0 670.0 C 322.5 669.0, 320.5 668.3, 320.0 669.0 Z M 177.0 126.0 C 172.8 129.0, 166.0 137.8, 161.0 144.0 C 156.0 150.2, 150.3 156.7, 147.0 163.0 C 143.7 169.3, 143.5 175.7, 141.0 182.0 C 138.5 188.3, 134.2 194.7, 132.0 201.0 C 129.8 207.3, 128.7 213.7, 128.0 220.0 C 127.3 226.3, 128.0 232.7, 128.0 239.0 C 128.0 245.3, 127.7 251.7, 128.0 258.0 C 128.3 264.3, 128.0 270.7, 130.0 277.0 C 132.0 283.3, 137.5 289.7, 140.0 296.0 C 142.5 302.3, 141.7 308.7, 145.0 315.0 C 148.3 321.3, 154.7 328.2, 160.0 334.0 C 165.3 339.8, 173.0 344.7, 177.0 350.0 C 181.0 355.3, 185.0 360.3, 184.0 366.0 C 183.0 371.7, 175.0 377.8, 171.0 384.0 C 167.0 390.2, 160.0 398.0, 160.0 403.0 C 160.0 408.0, 166.2 414.0, 171.0 414.0 C 175.8 414.0, 182.8 405.7, 189.0 403.0 C 195.2 400.3, 201.7 399.2, 208.0 398.0 C 214.3 396.8, 221.7 393.7, 227.0 396.0 C 232.3 398.3, 236.5 406.2, 240.0 412.0 C 243.5 417.8, 243.5 425.3, 248.0 431.0 C 252.5 436.7, 260.7 443.8, 267.0 446.0 C 273.3 448.2, 282.2 447.5, 286.0 444.0 C 289.8 440.5, 287.7 431.3, 290.0 425.0 C 292.3 418.7, 296.8 412.3, 300.0 406.0 C 303.2 399.7, 304.5 393.0, 309.0 387.0 C 313.5 381.0, 320.8 374.2, 327.0 370.0 C 333.2 365.8, 339.7 365.0, 346.0 362.0 C 352.3 359.0, 358.8 352.3, 365.0 352.0 C 371.2 351.7, 379.3 355.5, 383.0 360.0 C 386.7 364.5, 383.8 372.7, 387.0 379.0 C 390.2 385.3, 396.3 392.5, 402.0 398.0 C 407.7 403.5, 414.7 409.3, 421.0 412.0 C 427.3 414.7, 433.7 413.8, 440.0 414.0 C 446.3 414.2, 452.7 415.5, 459.0 413.0 C 465.3 410.5, 474.7 398.7, 478.0 399.0 C 481.3 399.3, 480.7 409.2, 479.0 415.0 C 477.3 420.8, 471.7 427.7, 468.0 434.0 C 464.3 440.3, 461.3 446.8, 457.0 453.0 C 452.7 459.2, 447.5 465.0, 442.0 471.0 C 436.5 477.0, 429.7 483.3, 424.0 489.0 C 418.3 494.7, 409.7 499.2, 408.0 505.0 C 406.3 510.8, 409.8 519.8, 414.0 524.0 C 418.2 528.2, 429.8 526.8, 433.0 530.0 C 436.2 533.2, 436.2 542.0, 433.0 543.0 C 429.8 544.0, 420.3 538.5, 414.0 536.0 C 407.7 533.5, 399.0 529.0, 395.0 528.0 C 391.0 527.0, 387.8 528.3, 390.0 530.0 C 392.2 531.7, 402.0 535.3, 408.0 538.0 C 414.0 540.7, 419.8 543.8, 426.0 546.0 C 432.2 548.2, 440.2 550.7, 445.0 551.0 C 449.8 551.3, 455.3 551.7, 455.0 548.0 C 454.7 544.3, 448.2 532.8, 443.0 529.0 C 437.8 525.2, 428.8 528.5, 424.0 525.0 C 419.2 521.5, 413.3 513.7, 414.0 508.0 C 414.7 502.3, 422.7 496.8, 428.0 491.0 C 433.3 485.2, 440.3 478.8, 446.0 473.0 C 451.7 467.2, 458.3 462.0, 462.0 456.0 C 465.7 450.0, 464.3 442.7, 468.0 437.0 C 471.7 431.3, 478.3 426.8, 484.0 422.0 C 489.7 417.2, 496.0 408.2, 502.0 408.0 C 508.0 407.8, 514.5 417.2, 520.0 421.0 C 525.5 424.8, 534.5 432.5, 535.0 431.0 C 535.5 429.5, 526.0 418.3, 523.0 412.0 C 520.0 405.7, 515.2 394.5, 517.0 393.0 C 518.8 391.5, 528.0 399.3, 534.0 403.0 C 540.0 406.7, 546.7 413.2, 553.0 415.0 C 559.3 416.8, 565.7 415.2, 572.0 414.0 C 578.3 412.8, 584.7 411.7, 591.0 408.0 C 597.3 404.3, 604.8 397.8, 610.0 392.0 C 615.2 386.2, 618.8 379.3, 622.0 373.0 C 625.2 366.7, 624.7 357.2, 629.0 354.0 C 633.3 350.8, 641.7 352.2, 648.0 354.0 C 654.3 355.8, 660.8 361.3, 667.0 365.0 C 673.2 368.7, 679.0 371.2, 685.0 376.0 C 691.0 380.8, 698.8 387.8, 703.0 394.0 C 707.2 400.2, 707.5 406.7, 710.0 413.0 C 712.5 419.3, 715.2 426.3, 718.0 432.0 C 720.8 437.7, 722.3 445.3, 727.0 447.0 C 731.7 448.7, 740.0 445.5, 746.0 442.0 C 752.0 438.5, 759.2 431.7, 763.0 426.0 C 766.8 420.3, 765.3 413.0, 769.0 408.0 C 772.7 403.0, 779.2 397.5, 785.0 396.0 C 790.8 394.5, 797.7 397.7, 804.0 399.0 C 810.3 400.3, 816.7 401.5, 823.0 404.0 C 829.3 406.5, 838.0 415.0, 842.0 414.0 C 846.0 413.0, 848.3 403.8, 847.0 398.0 C 845.7 392.2, 838.5 385.3, 834.0 379.0 C 829.5 372.7, 819.5 365.5, 820.0 360.0 C 820.5 354.5, 831.8 351.3, 837.0 346.0 C 842.2 340.7, 846.5 334.2, 851.0 328.0 C 855.5 321.8, 860.8 315.3, 864.0 309.0 C 867.2 302.7, 867.8 296.3, 870.0 290.0 C 872.2 283.7, 875.5 277.3, 877.0 271.0 C 878.5 264.7, 878.7 258.3, 879.0 252.0 C 879.3 245.7, 879.0 239.3, 879.0 233.0 C 879.0 226.7, 880.3 220.3, 879.0 214.0 C 877.7 207.7, 873.3 201.3, 871.0 195.0 C 868.7 188.7, 867.5 182.3, 865.0 176.0 C 862.5 169.7, 860.2 163.3, 856.0 157.0 C 851.8 150.7, 845.5 143.2, 840.0 138.0 C 834.5 132.8, 827.2 125.7, 823.0 126.0 C 818.8 126.3, 815.7 134.5, 815.0 140.0 C 814.3 145.5, 817.3 152.7, 819.0 159.0 C 820.7 165.3, 823.8 171.7, 825.0 178.0 C 826.2 184.3, 826.8 190.7, 826.0 197.0 C 825.2 203.3, 822.0 209.7, 820.0 216.0 C 818.0 222.3, 817.0 228.7, 814.0 235.0 C 811.0 241.3, 806.7 249.7, 802.0 254.0 C 797.3 258.3, 789.3 263.0, 786.0 261.0 C 782.7 259.0, 784.0 248.3, 782.0 242.0 C 780.0 235.7, 776.7 229.3, 774.0 223.0 C 771.3 216.7, 769.8 209.5, 766.0 204.0 C 762.2 198.5, 756.3 191.5, 751.0 190.0 C 745.7 188.5, 736.8 191.0, 734.0 195.0 C 731.2 199.0, 733.8 207.7, 734.0 214.0 C 734.2 220.3, 736.3 226.7, 735.0 233.0 C 733.7 239.3, 728.8 245.7, 726.0 252.0 C 723.2 258.3, 721.8 264.7, 718.0 271.0 C 714.2 277.3, 708.5 284.5, 703.0 290.0 C 697.5 295.5, 691.2 300.0, 685.0 304.0 C 678.8 308.0, 672.3 311.7, 666.0 314.0 C 659.7 316.3, 653.3 317.7, 647.0 318.0 C 640.7 318.3, 634.3 317.8, 628.0 316.0 C 621.7 314.2, 615.3 309.2, 609.0 307.0 C 602.7 304.8, 596.3 304.0, 590.0 303.0 C 583.7 302.0, 577.3 301.3, 571.0 301.0 C 564.7 300.7, 558.3 300.5, 552.0 301.0 C 545.7 301.5, 539.2 300.8, 533.0 304.0 C 526.8 307.2, 518.8 314.2, 515.0 320.0 C 511.2 325.8, 512.8 335.3, 510.0 339.0 C 507.2 342.7, 500.7 344.7, 498.0 342.0 C 495.3 339.3, 497.7 329.0, 494.0 323.0 C 490.3 317.0, 482.2 309.5, 476.0 306.0 C 469.8 302.5, 463.3 302.8, 457.0 302.0 C 450.7 301.2, 444.3 300.8, 438.0 301.0 C 431.7 301.2, 425.3 302.2, 419.0 303.0 C 412.7 303.8, 406.3 303.8, 400.0 306.0 C 393.7 308.2, 387.3 314.0, 381.0 316.0 C 374.7 318.0, 368.3 318.0, 362.0 318.0 C 355.7 318.0, 349.3 318.2, 343.0 316.0 C 336.7 313.8, 330.2 309.0, 324.0 305.0 C 317.8 301.0, 311.8 297.2, 306.0 292.0 C 300.2 286.8, 293.0 280.2, 289.0 274.0 C 285.0 267.8, 284.7 261.3, 282.0 255.0 C 279.3 248.7, 274.5 242.3, 273.0 236.0 C 271.5 229.7, 272.8 223.3, 273.0 217.0 C 273.2 210.7, 276.3 202.7, 274.0 198.0 C 271.7 193.3, 264.3 188.3, 259.0 189.0 C 253.7 189.7, 246.2 196.7, 242.0 202.0 C 237.8 207.3, 236.8 214.7, 234.0 221.0 C 231.2 227.3, 227.0 233.7, 225.0 240.0 C 223.0 246.3, 225.2 256.3, 222.0 259.0 C 218.8 261.7, 210.8 259.7, 206.0 256.0 C 201.2 252.3, 196.0 243.3, 193.0 237.0 C 190.0 230.7, 190.0 224.3, 188.0 218.0 C 186.0 211.7, 182.2 205.3, 181.0 199.0 C 179.8 192.7, 180.2 186.3, 181.0 180.0 C 181.8 173.7, 184.2 167.3, 186.0 161.0 C 187.8 154.7, 192.0 147.8, 192.0 142.0 C 192.0 136.2, 188.5 128.7, 186.0 126.0 C 183.5 123.3, 181.2 123.0, 177.0 126.0 Z" />
    <path fill="#f6cf9f" stroke="#f6cf9f" stroke-width="8" stroke-linejoin="round" fill-rule="evenodd" d="M 529.0 432.0 C 528.0 432.8, 528.5 437.3, 529.0 440.0 C 529.5 442.7, 531.5 445.3, 532.0 448.0 C 532.5 450.7, 532.0 453.3, 532.0 456.0 C 532.0 458.7, 532.2 461.3, 532.0 464.0 C 531.8 466.7, 531.2 469.3, 531.0 472.0 C 530.8 474.7, 531.3 477.3, 531.0 480.0 C 530.7 482.7, 530.7 485.5, 529.0 488.0 C 527.3 490.5, 523.3 492.7, 521.0 495.0 C 518.7 497.3, 516.7 499.5, 515.0 502.0 C 513.3 504.5, 513.0 507.8, 511.0 510.0 C 509.0 512.2, 505.7 514.8, 503.0 515.0 C 500.3 515.2, 497.2 513.0, 495.0 511.0 C 492.8 509.0, 492.0 505.3, 490.0 503.0 C 488.0 500.7, 485.2 499.3, 483.0 497.0 C 480.8 494.7, 478.2 491.7, 477.0 489.0 C 475.8 486.3, 476.2 483.7, 476.0 481.0 C 475.8 478.3, 476.2 475.7, 476.0 473.0 C 475.8 470.3, 475.5 467.7, 475.0 465.0 C 474.5 462.3, 473.2 459.7, 473.0 457.0 C 472.8 454.3, 473.3 451.7, 474.0 449.0 C 474.7 446.3, 476.3 443.7, 477.0 441.0 C 477.7 438.3, 479.2 433.8, 478.0 433.0 C 476.8 432.2, 471.8 434.2, 470.0 436.0 C 468.2 437.8, 467.8 441.3, 467.0 444.0 C 466.2 446.7, 466.2 449.5, 465.0 452.0 C 463.8 454.5, 462.2 456.7, 460.0 459.0 C 457.8 461.3, 454.3 463.5, 452.0 466.0 C 449.7 468.5, 448.3 471.5, 446.0 474.0 C 443.7 476.5, 440.5 478.5, 438.0 481.0 C 435.5 483.5, 433.5 486.3, 431.0 489.0 C 428.5 491.7, 425.5 494.7, 423.0 497.0 C 420.5 499.3, 417.3 500.7, 416.0 503.0 C 414.7 505.3, 414.7 508.3, 415.0 511.0 C 415.3 513.7, 416.3 516.8, 418.0 519.0 C 419.7 521.2, 422.5 523.0, 425.0 524.0 C 427.5 525.0, 430.3 524.5, 433.0 525.0 C 435.7 525.5, 438.5 525.5, 441.0 527.0 C 443.5 528.5, 446.3 531.5, 448.0 534.0 C 449.7 536.5, 449.3 539.3, 451.0 542.0 C 452.7 544.7, 457.3 547.5, 458.0 550.0 C 458.7 552.5, 456.8 556.3, 455.0 557.0 C 453.2 557.7, 449.7 555.3, 447.0 554.0 C 444.3 552.7, 441.7 550.0, 439.0 549.0 C 436.3 548.0, 433.7 548.3, 431.0 548.0 C 428.3 547.7, 425.7 547.5, 423.0 547.0 C 420.3 546.5, 417.5 546.3, 415.0 545.0 C 412.5 543.7, 410.3 541.0, 408.0 539.0 C 405.7 537.0, 403.5 534.3, 401.0 533.0 C 398.5 531.7, 395.7 531.5, 393.0 531.0 C 390.3 530.5, 387.7 530.2, 385.0 530.0 C 382.3 529.8, 379.7 529.3, 377.0 530.0 C 374.3 530.7, 371.5 532.0, 369.0 534.0 C 366.5 536.0, 364.5 539.8, 362.0 542.0 C 359.5 544.2, 356.7 546.2, 354.0 547.0 C 351.3 547.8, 348.7 546.3, 346.0 547.0 C 343.3 547.7, 340.7 549.2, 338.0 551.0 C 335.3 552.8, 332.5 555.7, 330.0 558.0 C 327.5 560.3, 324.5 562.5, 323.0 565.0 C 321.5 567.5, 321.2 570.3, 321.0 573.0 C 320.8 575.7, 321.7 578.3, 322.0 581.0 C 322.3 583.7, 322.8 586.3, 323.0 589.0 C 323.2 591.7, 323.0 594.3, 323.0 597.0 C 323.0 599.7, 323.0 602.3, 323.0 605.0 C 323.0 607.7, 323.0 610.3, 323.0 613.0 C 323.0 615.7, 323.0 618.3, 323.0 621.0 C 323.0 623.7, 323.0 626.3, 323.0 629.0 C 323.0 631.7, 323.0 634.3, 323.0 637.0 C 323.0 639.7, 323.0 642.3, 323.0 645.0 C 323.0 647.7, 323.0 650.3, 323.0 653.0 C 323.0 655.7, 323.0 658.3, 323.0 661.0 C 323.0 663.7, 322.7 666.3, 323.0 669.0 C 323.3 671.7, 324.2 674.3, 325.0 677.0 C 325.8 679.7, 326.7 682.3, 328.0 685.0 C 329.3 687.7, 331.7 690.3, 333.0 693.0 C 334.3 695.7, 335.5 698.3, 336.0 701.0 C 336.5 703.7, 335.3 706.3, 336.0 709.0 C 336.7 711.7, 338.3 714.3, 340.0 717.0 C 341.7 719.7, 343.7 722.3, 346.0 725.0 C 348.3 727.7, 352.0 730.3, 354.0 733.0 C 356.0 735.7, 356.0 738.5, 358.0 741.0 C 360.0 743.5, 363.5 745.7, 366.0 748.0 C 368.5 750.3, 370.8 752.7, 373.0 755.0 C 375.2 757.3, 376.7 760.0, 379.0 762.0 C 381.3 764.0, 384.3 764.8, 387.0 767.0 C 389.7 769.2, 392.3 772.8, 395.0 775.0 C 397.7 777.2, 400.3 778.5, 403.0 780.0 C 405.7 781.5, 408.3 782.0, 411.0 784.0 C 413.7 786.0, 416.5 789.8, 419.0 792.0 C 421.5 794.2, 423.5 795.8, 426.0 797.0 C 428.5 798.2, 431.3 797.5, 434.0 799.0 C 436.7 800.5, 439.5 803.8, 442.0 806.0 C 444.5 808.2, 446.5 810.5, 449.0 812.0 C 451.5 813.5, 454.3 814.3, 457.0 815.0 C 459.7 815.7, 462.3 815.0, 465.0 816.0 C 467.7 817.0, 470.5 819.0, 473.0 821.0 C 475.5 823.0, 477.5 826.5, 480.0 828.0 C 482.5 829.5, 485.3 829.7, 488.0 830.0 C 490.7 830.3, 493.3 830.0, 496.0 830.0 C 498.7 830.0, 501.3 830.0, 504.0 830.0 C 506.7 830.0, 509.3 830.0, 512.0 830.0 C 514.7 830.0, 517.3 830.5, 520.0 830.0 C 522.7 829.5, 525.5 828.5, 528.0 827.0 C 530.5 825.5, 532.5 822.8, 535.0 821.0 C 537.5 819.2, 540.3 817.0, 543.0 816.0 C 545.7 815.0, 548.3 815.8, 551.0 815.0 C 553.7 814.2, 556.3 812.8, 559.0 811.0 C 561.7 809.2, 564.3 806.0, 567.0 804.0 C 569.7 802.0, 572.3 800.0, 575.0 799.0 C 577.7 798.0, 580.5 799.2, 583.0 798.0 C 585.5 796.8, 587.5 794.3, 590.0 792.0 C 592.5 789.7, 595.3 786.0, 598.0 784.0 C 600.7 782.0, 603.5 781.7, 606.0 780.0 C 608.5 778.3, 610.5 776.2, 613.0 774.0 C 615.5 771.8, 618.3 769.0, 621.0 767.0 C 623.7 765.0, 626.7 764.0, 629.0 762.0 C 631.3 760.0, 632.7 757.2, 635.0 755.0 C 637.3 752.8, 640.5 751.2, 643.0 749.0 C 645.5 746.8, 648.3 744.5, 650.0 742.0 C 651.7 739.5, 651.3 736.7, 653.0 734.0 C 654.7 731.3, 657.7 728.7, 660.0 726.0 C 662.3 723.3, 665.3 720.7, 667.0 718.0 C 668.7 715.3, 669.3 712.7, 670.0 710.0 C 670.7 707.3, 670.3 704.7, 671.0 702.0 C 671.7 699.3, 672.7 696.7, 674.0 694.0 C 675.3 691.3, 677.5 688.7, 679.0 686.0 C 680.5 683.3, 682.2 680.7, 683.0 678.0 C 683.8 675.3, 683.7 672.7, 684.0 670.0 C 684.3 667.3, 684.8 664.7, 685.0 662.0 C 685.2 659.3, 685.0 656.7, 685.0 654.0 C 685.0 651.3, 685.0 648.7, 685.0 646.0 C 685.0 643.3, 684.8 640.7, 685.0 638.0 C 685.2 635.3, 685.8 632.7, 686.0 630.0 C 686.2 627.3, 685.8 624.7, 686.0 622.0 C 686.2 619.3, 686.5 616.7, 687.0 614.0 C 687.5 611.3, 688.0 608.7, 689.0 606.0 C 690.0 603.3, 692.2 600.7, 693.0 598.0 C 693.8 595.3, 693.7 592.7, 694.0 590.0 C 694.3 587.3, 694.7 584.7, 695.0 582.0 C 695.3 579.3, 696.3 576.7, 696.0 574.0 C 695.7 571.3, 694.8 567.8, 693.0 566.0 C 691.2 564.2, 687.7 564.0, 685.0 563.0 C 682.3 562.0, 679.7 561.8, 677.0 560.0 C 674.3 558.2, 671.7 554.2, 669.0 552.0 C 666.3 549.8, 663.7 547.8, 661.0 547.0 C 658.3 546.2, 655.7 547.5, 653.0 547.0 C 650.3 546.5, 647.3 545.8, 645.0 544.0 C 642.7 542.2, 641.2 538.2, 639.0 536.0 C 636.8 533.8, 634.5 532.0, 632.0 531.0 C 629.5 530.0, 626.7 530.0, 624.0 530.0 C 621.3 530.0, 618.7 530.7, 616.0 531.0 C 613.3 531.3, 610.7 531.8, 608.0 532.0 C 605.3 532.2, 602.5 530.8, 600.0 532.0 C 597.5 533.2, 595.3 536.8, 593.0 539.0 C 590.7 541.2, 588.5 543.8, 586.0 545.0 C 583.5 546.2, 580.7 545.7, 578.0 546.0 C 575.3 546.3, 572.7 546.7, 570.0 547.0 C 567.3 547.3, 564.3 546.7, 562.0 548.0 C 559.7 549.3, 558.2 553.2, 556.0 555.0 C 553.8 556.8, 551.2 559.5, 549.0 559.0 C 546.8 558.5, 543.2 554.5, 543.0 552.0 C 542.8 549.5, 546.2 546.5, 548.0 544.0 C 549.8 541.5, 552.2 539.5, 554.0 537.0 C 555.8 534.5, 556.8 531.0, 559.0 529.0 C 561.2 527.0, 564.3 526.2, 567.0 525.0 C 569.7 523.8, 572.3 523.2, 575.0 522.0 C 577.7 520.8, 580.7 520.0, 583.0 518.0 C 585.3 516.0, 587.8 512.7, 589.0 510.0 C 590.2 507.3, 591.0 504.5, 590.0 502.0 C 589.0 499.5, 585.5 497.3, 583.0 495.0 C 580.5 492.7, 577.5 490.3, 575.0 488.0 C 572.5 485.7, 570.5 483.3, 568.0 481.0 C 565.5 478.7, 562.3 476.5, 560.0 474.0 C 557.7 471.5, 556.2 467.8, 554.0 466.0 C 551.8 464.2, 549.3 464.2, 547.0 463.0 C 544.7 461.8, 541.3 461.0, 540.0 459.0 C 538.7 457.0, 539.3 453.7, 539.0 451.0 C 538.7 448.3, 538.7 445.7, 538.0 443.0 C 537.3 440.3, 536.5 436.8, 535.0 435.0 C 533.5 433.2, 530.0 431.2, 529.0 432.0 Z" />
    <path fill="#da20b5" stroke="#da20b5" stroke-width="8" stroke-linejoin="round" fill-rule="evenodd" d="M 495.0 414.0 C 494.3 414.2, 493.7 414.7, 493.0 415.0 C 492.3 415.3, 491.7 415.5, 491.0 416.0 C 490.3 416.5, 489.7 417.5, 489.0 418.0 C 488.3 418.5, 487.5 418.5, 487.0 419.0 C 486.5 419.5, 486.5 420.3, 486.0 421.0 C 485.5 421.7, 484.5 422.3, 484.0 423.0 C 483.5 423.7, 483.5 424.3, 483.0 425.0 C 482.5 425.7, 481.5 426.3, 481.0 427.0 C 480.5 427.7, 480.3 428.3, 480.0 429.0 C 479.7 429.7, 479.3 430.3, 479.0 431.0 C 478.7 431.7, 478.3 432.3, 478.0 433.0 C 477.7 433.7, 477.3 434.3, 477.0 435.0 C 476.7 435.7, 476.3 436.3, 476.0 437.0 C 475.7 437.7, 475.2 438.3, 475.0 439.0 C 474.8 439.7, 475.0 440.3, 475.0 441.0 C 475.0 441.7, 475.0 442.3, 475.0 443.0 C 475.0 443.7, 475.0 444.3, 475.0 445.0 C 475.0 445.7, 475.0 446.3, 475.0 447.0 C 475.0 447.7, 475.0 448.3, 475.0 449.0 C 475.0 449.7, 475.0 450.3, 475.0 451.0 C 475.0 451.7, 475.0 452.3, 475.0 453.0 C 475.0 453.7, 475.0 454.3, 475.0 455.0 C 475.0 455.7, 475.0 456.3, 475.0 457.0 C 475.0 457.7, 475.0 458.3, 475.0 459.0 C 475.0 459.7, 475.0 460.3, 475.0 461.0 C 475.0 461.7, 475.0 462.3, 475.0 463.0 C 475.0 463.7, 474.8 464.3, 475.0 465.0 C 475.2 465.7, 475.8 466.3, 476.0 467.0 C 476.2 467.7, 476.0 468.3, 476.0 469.0 C 476.0 469.7, 475.8 470.3, 476.0 471.0 C 476.2 471.7, 476.8 472.3, 477.0 473.0 C 477.2 473.7, 477.0 474.3, 477.0 475.0 C 477.0 475.7, 477.0 476.3, 477.0 477.0 C 477.0 477.7, 477.0 478.3, 477.0 479.0 C 477.0 479.7, 477.0 480.3, 477.0 481.0 C 477.0 481.7, 477.0 482.3, 477.0 483.0 C 477.0 483.7, 477.0 484.3, 477.0 485.0 C 477.0 485.7, 476.8 486.3, 477.0 487.0 C 477.2 487.7, 477.8 488.3, 478.0 489.0 C 478.2 489.7, 477.7 490.3, 478.0 491.0 C 478.3 491.7, 479.5 492.3, 480.0 493.0 C 480.5 493.7, 480.5 494.3, 481.0 495.0 C 481.5 495.7, 482.3 496.3, 483.0 497.0 C 483.7 497.7, 484.3 498.3, 485.0 499.0 C 485.7 499.7, 486.3 500.3, 487.0 501.0 C 487.7 501.7, 488.5 502.3, 489.0 503.0 C 489.5 503.7, 489.5 504.3, 490.0 505.0 C 490.5 505.7, 491.5 506.3, 492.0 507.0 C 492.5 507.7, 492.5 508.3, 493.0 509.0 C 493.5 509.7, 494.3 510.5, 495.0 511.0 C 495.7 511.5, 496.3 511.7, 497.0 512.0 C 497.7 512.3, 498.3 512.8, 499.0 513.0 C 499.7 513.2, 500.3 513.0, 501.0 513.0 C 501.7 513.0, 502.3 513.0, 503.0 513.0 C 503.7 513.0, 504.3 513.0, 505.0 513.0 C 505.7 513.0, 506.3 513.2, 507.0 513.0 C 507.7 512.8, 508.3 512.3, 509.0 512.0 C 509.7 511.7, 510.5 511.5, 511.0 511.0 C 511.5 510.5, 511.5 509.7, 512.0 509.0 C 512.5 508.3, 513.5 507.7, 514.0 507.0 C 514.5 506.3, 514.7 505.7, 515.0 505.0 C 515.3 504.3, 515.7 503.7, 516.0 503.0 C 516.3 502.3, 516.7 501.7, 517.0 501.0 C 517.3 500.3, 517.5 499.7, 518.0 499.0 C 518.5 498.3, 519.3 497.7, 520.0 497.0 C 520.7 496.3, 521.3 495.7, 522.0 495.0 C 522.7 494.3, 523.5 493.7, 524.0 493.0 C 524.5 492.3, 524.5 491.7, 525.0 491.0 C 525.5 490.3, 526.5 489.7, 527.0 489.0 C 527.5 488.3, 527.7 487.7, 528.0 487.0 C 528.3 486.3, 528.8 485.7, 529.0 485.0 C 529.2 484.3, 529.0 483.7, 529.0 483.0 C 529.0 482.3, 528.8 481.7, 529.0 481.0 C 529.2 480.3, 529.8 479.7, 530.0 479.0 C 530.2 478.3, 530.0 477.7, 530.0 477.0 C 530.0 476.3, 530.0 475.7, 530.0 475.0 C 530.0 474.3, 530.0 473.7, 530.0 473.0 C 530.0 472.3, 530.0 471.7, 530.0 471.0 C 530.0 470.3, 530.0 469.7, 530.0 469.0 C 530.0 468.3, 530.0 467.7, 530.0 467.0 C 530.0 466.3, 530.0 465.7, 530.0 465.0 C 530.0 464.3, 530.0 463.7, 530.0 463.0 C 530.0 462.3, 530.0 461.7, 530.0 461.0 C 530.0 460.3, 530.0 459.7, 530.0 459.0 C 530.0 458.3, 530.0 457.7, 530.0 457.0 C 530.0 456.3, 529.8 455.7, 530.0 455.0 C 530.2 454.3, 530.8 453.7, 531.0 453.0 C 531.2 452.3, 531.0 451.7, 531.0 451.0 C 531.0 450.3, 531.0 449.7, 531.0 449.0 C 531.0 448.3, 531.0 447.7, 531.0 447.0 C 531.0 446.3, 531.0 445.7, 531.0 445.0 C 531.0 444.3, 531.0 443.7, 531.0 443.0 C 531.0 442.3, 531.2 441.7, 531.0 441.0 C 530.8 440.3, 530.2 439.7, 530.0 439.0 C 529.8 438.3, 530.2 437.7, 530.0 437.0 C 529.8 436.3, 529.3 435.7, 529.0 435.0 C 528.7 434.3, 528.3 433.7, 528.0 433.0 C 527.7 432.3, 527.3 431.7, 527.0 431.0 C 526.7 430.3, 526.5 429.7, 526.0 429.0 C 525.5 428.3, 524.5 427.7, 524.0 427.0 C 523.5 426.3, 523.5 425.7, 523.0 425.0 C 522.5 424.3, 521.7 423.7, 521.0 423.0 C 520.3 422.3, 519.7 421.5, 519.0 421.0 C 518.3 420.5, 517.7 420.5, 517.0 420.0 C 516.3 419.5, 515.7 418.5, 515.0 418.0 C 514.3 417.5, 513.7 417.5, 513.0 417.0 C 512.3 416.5, 511.7 415.3, 511.0 415.0 C 510.3 414.7, 509.7 415.2, 509.0 415.0 C 508.3 414.8, 507.7 414.2, 507.0 414.0 C 506.3 413.8, 505.7 414.0, 505.0 414.0 C 504.3 414.0, 503.7 414.0, 503.0 414.0 C 502.3 414.0, 501.7 414.0, 501.0 414.0 C 500.3 414.0, 499.7 414.0, 499.0 414.0 C 498.3 414.0, 497.7 414.0, 497.0 414.0 C 496.3 414.0, 495.7 413.8, 495.0 414.0 Z" />
  </g>
</svg>